999
dxflib 3.26.4.0
  0
SECTION
  2
HEADER
  9
$ACADVER
  1
AC1015
  9
$HANDSEED
  5
FFFF
  9
$ANGBASE
 50
0.0
  9
$ANGDIR
 70
0
  9
$ATTMODE
 70
1
  9
$AUNITS
 70
0
  9
$AUPREC
 70
0
  9
$CECOLOR
 62
256
  9
$CELTSCALE
 40
1.0
  9
$CHAMFERA
 40
0.0
  9
$CHAMFERB
 40
0.0
  9
$CHAMFERC
 40
0.0
  9
$CHAMFERD
 40
0.0
  9
$CMLJUST
 70
0
  9
$CMLSCALE
 40
1.0
  9
$DIMADEC
 70
0
  9
$DIMALT
 70
0
  9
$DIMALTD
 70
2
  9
$DIMALTF
 40
25.3999999999999986
  9
$DIMALTRND
 40
0.0
  9
$DIMALTTD
 70
2
  9
$DIMALTTZ
 70
0
  9
$DIMALTU
 70
2
  9
$DIMALTZ
 70
0
  9
$DIMAPOST
  1

  9
$DIMASZ
 40
2.5
  9
$DIMATFIT
 70
0
  9
$DIMAUNIT
 70
0
  9
$DIMAZIN
 70
2
  9
$DIMBLK
  1
0
  9
$DIMBLK1
  1
0
  9
$DIMBLK2
  1
0
  9
$DIMCEN
 40
0.09
  9
$DIMCLRD
 70
0
  9
$DIMCLRE
 70
0
  9
$DIMDEC
 70
4
  9
$DIMDLE
 40
0.0
  9
$DIMDLI
 40
5.0
  9
$DIMDSEP
 70
46
  9
$DIMEXE
 40
1.25
  9
$DIMEXO
 40
0.625
  9
$DIMFRAC
 70
0
  9
$DIMGAP
 40
0.625
  9
$DIMJUST
 70
0
  9
$DIMLDRBLK
  1

  9
$DIMLFAC
 40
1.0
  9
$DIMLIM
 70
0
  9
$DIMLUNIT
 70
2
  9
$DIMLWD
 70
-2
  9
$DIMLWE
 70
-2
  9
$DIMPOST
  1

  9
$DIMRND
 40
0.0
  9
$DIMSAH
 70
0
  9
$DIMSCALE
 40
1.0
  9
$DIMSD1
 70
0
  9
$DIMSD2
 70
0
  9
$DIMSE1
 70
0
  9
$DIMSE2
 70
0
  9
$DIMSOXD
 70
0
  9
$DIMTAD
 70
1
  9
$DIMTDEC
 70
4
  9
$DIMTFAC
 40
1.0
  9
$DIMTIH
 70
0
  9
$DIMTIX
 70
0
  9
$DIMTM
 40
0.0
  9
$DIMTOFL
 70
0
  9
$DIMTOH
 70
1
  9
$DIMTOL
 70
0
  9
$DIMTOLJ
 70
1
  9
$DIMTP
 40
0.0
  9
$DIMTSZ
 40
0.0
  9
$DIMTVP
 40
0.0
  9
$DIMTXSTY
  7
Standard
  9
$DIMTXT
 40
2.5
  9
$DIMTZIN
 70
0
  9
$DIMUPT
 70
0
  9
$DIMZIN
 70
8
  9
$DISPSILH
 70
0
  9
$DWGCODEPAGE
  3
ANSI_1252
  9
$ELEVATION
 40
0.0
  9
$EXTMAX
 10
200.0
 20
53.1252166892948594
 30
0.0
  9
$EXTMIN
 10
-13.1252166892948701
 20
0.0
 30
0.0
  9
$FILLETRAD
 40
0.0
  9
$FILLMODE
 70
1
  9
$INSBASE
 10
0.0
 20
0.0
 30
0.0
  9
$INSUNITS
 70
4
  9
$LIMCHECK
 70
0
  9
$LIMMAX
 10
12.0
 20
9.0
  9
$LIMMIN
 10
0.0
 20
0.0
  9
$LTSCALE
 40
1.0
  9
$LUNITS
 70
2
  9
$LUPREC
 70
4
  9
$MAXACTVP
 70
64
  9
$MEASUREMENT
 70
1
  9
$MIRRTEXT
 70
0
  9
$ORTHOMODE
 70
0
  9
$PDMODE
 70
0
  9
$PDSIZE
 40
0.0
  9
$PELEVATION
 40
0.0
  9
$PEXTMAX
 10
0.0
 20
0.0
 30
0.0
  9
$PEXTMIN
 10
0.0
 20
0.0
 30
0.0
  9
$PINSBASE
 10
0.0
 20
0.0
 30
0.0
  9
$PLIMCHECK
 70
0
  9
$PLIMMAX
 10
277.0
 20
202.5
  9
$PLIMMIN
 10
-20.0
 20
-7.5
  9
$PLINEGEN
 70
0
  9
$PLINEWID
 40
0.0
  9
$PROXYGRAPHICS
 70
1
  9
$PSLTSCALE
 70
1
  9
$PUCSNAME
  2

  9
$PUCSORG
 10
0.0
 20
0.0
 30
0.0
  9
$PUCSXDIR
 10
1.0
 20
0.0
 30
0.0
  9
$PUCSYDIR
 10
0.0
 20
1.0
 30
0.0
  9
$QTEXTMODE
 70
0
  9
$REGENMODE
 70
1
  9
$SHADEDGE
 70
3
  9
$SHADEDIF
 70
70
  9
$SKETCHINC
 40
0.1
  9
$SKPOLY
 70
0
  9
$SPLFRAME
 70
0
  9
$SPLINESEGS
 70
8
  9
$SPLINETYPE
 70
6
  9
$SURFTAB1
 70
6
  9
$SURFTAB2
 70
6
  9
$SURFTYPE
 70
6
  9
$SURFU
 70
6
  9
$SURFV
 70
6
  9
$TEXTSIZE
 40
2.5
  9
$TEXTSTYLE
  7
Standard
  9
$THICKNESS
 40
0.0
  9
$TILEMODE
 70
1
  9
$TRACEWID
 40
0.05
  9
$TREEDEPTH
 70
3020
  9
$UCSNAME
  2

  9
$UCSORG
 10
0.0
 20
0.0
 30
0.0
  9
$UCSXDIR
 10
1.0
 20
0.0
 30
0.0
  9
$UCSYDIR
 10
0.0
 20
1.0
 30
0.0
  9
$UNITMODE
 70
0
  9
$USERI1
 70
0
  9
$USERI2
 70
0
  9
$USERI3
 70
0
  9
$USERI4
 70
0
  9
$USERI5
 70
0
  9
$USERR1
 40
0.0
  9
$USERR2
 40
0.0
  9
$USERR3
 40
0.0
  9
$USERR4
 40
0.0
  9
$USERR5
 40
0.0
  9
$USRTIMER
 70
1
  9
$VISRETAIN
 70
1
  0
ENDSEC
  0
SECTION
  2
TABLES
  0
TABLE
  2
VPORT
  5
8
100
AcDbSymbolTable
 70
1
  0
VPORT
  5
30
100
AcDbSymbolTableRecord
100
AcDbViewportTableRecord
  2
*Active
 70
0
 10
0.0
 20
0.0
 11
1.0
 21
1.0
 12
286.3055555555554861
 22
148.5
 13
0.0
 23
0.0
 14
10.0
 24
10.0
 15
10.0
 25
10.0
 16
0.0
 26
0.0
 36
1.0
 17
0.0
 27
0.0
 37
0.0
 40
297.0
 41
1.92798353909465
 42
50.0
 43
0.0
 44
0.0
 50
0.0
 51
0.0
 71
0
 72
100
 73
1
 74
3
 75
1
 76
1
 77
0
 78
0
281
0
 65
1
110
0.0
120
0.0
130
0.0
111
1.0
121
0.0
131
0.0
112
0.0
122
1.0
132
0.0
 79
0
146
0.0
  0
ENDTAB
  0
TABLE
  2
LTYPE
  5
5
100
AcDbSymbolTable
 70
50
  0
LTYPE
  5
16
100
AcDbSymbolTableRecord
100
AcDbLinetypeTableRecord
  2
Continuous
 70
0
  3
Solid line
 72
65
 73
0
 40
0.0
  0
LTYPE
  5
31
100
AcDbSymbolTableRecord
100
AcDbLinetypeTableRecord
  2
DOTX2
 70
0
  3
Dot (2x) .  .  .  .  .  .  .  .  .  .  .  .  .  .
 72
65
 73
2
 40
12.6999999999999993
 49
0.1
 74
0
 49
-12.5999999999999996
 74
0
  0
LTYPE
  5
32
100
AcDbSymbolTableRecord
100
AcDbLinetypeTableRecord
  2
DIVIDEX2
 70
0
  3
Divide (2x) ________  .  .  ________  .  .  _
 72
65
 73
6
 40
63.5
 49
25.3999999999999986
 74
0
 49
-12.6500000000000004
 74
0
 49
0.1
 74
0
 49
-12.5999999999999996
 74
0
 49
0.1
 74
0
 49
-12.6500000000000004
 74
0
  0
LTYPE
  5
33
100
AcDbSymbolTableRecord
100
AcDbLinetypeTableRecord
  2
DOT
 70
0
  3
Dot . . . . . . . . . . . . . . . . . . . . . . . .
 72
65
 73
2
 40
6.3499999999999996
 49
0.1
 74
0
 49
-6.25
 74
0
  0
LTYPE
  5
34
100
AcDbSymbolTableRecord
100
AcDbLinetypeTableRecord
  2
BORDER2
 70
0
  3
Border (.5x) __.__.__.__.__.__.__.__.__.__.__.
 72
65
 73
6
 40
22.2250000000000014
 49
6.3499999999999996
 74
0
 49
-3.1749999999999998
 74
0
 49
6.3499999999999996
 74
0
 49
-3.125
 74
0
 49
0.1
 74
0
 49
-3.125
 74
0
  0
LTYPE
  5
35
100
AcDbSymbolTableRecord
100
AcDbLinetypeTableRecord
  2
ACAD_ISO09W100
 70
0
  3
ISO long-dash double-short-dash ____ __ __ ____
 72
65
 73
6
 40
45.0
 49
24.0
 74
0
 49
-3.0
 74
0
 49
6.0
 74
0
 49
-3.0
 74
0
 49
6.0
 74
0
 49
-3.0
 74
0
  0
LTYPE
  5
36
100
AcDbSymbolTableRecord
100
AcDbLinetypeTableRecord
  2
BORDERX2
 70
0
  3
Border (2x) ____  ____  .  ____  ____  .  ___
 72
65
 73
6
 40
88.8999999999999915
 49
25.3999999999999986
 74
0
 49
-12.6999999999999993
 74
0
 49
25.3999999999999986
 74
0
 49
-12.6500000000000004
 74
0
 49
0.1
 74
0
 49
-12.6500000000000004
 74
0
  0
LTYPE
  5
37
100
AcDbSymbolTableRecord
100
AcDbLinetypeTableRecord
  2
FENCELINE2
 70
0
  3
Fenceline square ----[]-----[]----[]-----[]----[]---
 72
65
 73
2
 40
8.8900000000000006
 49
6.3499999999999996
 74
0
 49
-2.54
 74
0
  0
LTYPE
  5
38
100
AcDbSymbolTableRecord
100
AcDbLinetypeTableRecord
  2
CENTER
 70
0
  3
Center ____ _ ____ _ ____ _ ____ _ ____ _ ____
 72
65
 73
4
 40
50.8000000000000043
 49
31.75
 74
0
 49
-6.3499999999999996
 74
0
 49
6.3499999999999996
 74
0
 49
-6.3499999999999996
 74
0
  0
LTYPE
  5
39
100
AcDbSymbolTableRecord
100
AcDbLinetypeTableRecord
  2
HIDDEN
 70
0
  3
Hidden __ __ __ __ __ __ __ __ __ __ __ __ __ __
 72
65
 73
2
 40
9.5249999999999986
 49
6.3499999999999996
 74
0
 49
-3.1749999999999998
 74
0
  0
LTYPE
  5
3A
100
AcDbSymbolTableRecord
100
AcDbLinetypeTableRecord
  2
DOT2
 70
0
  3
Dot (.5x) ........................................
 72
65
 73
2
 40
3.1750000000000003
 49
0.1
 74
0
 49
-3.0750000000000002
 74
0
  0
LTYPE
  5
3B
100
AcDbSymbolTableRecord
100
AcDbLinetypeTableRecord
  2
DASHDOT
 70
0
  3
Dash dot __ . __ . __ . __ . __ . __ . __ . __
 72
65
 73
4
 40
25.4000000000000021
 49
12.6999999999999993
 74
0
 49
-6.2999999999999998
 74
0
 49
0.1
 74
0
 49
-6.2999999999999998
 74
0
  0
LTYPE
  5
3C
100
AcDbSymbolTableRecord
100
AcDbLinetypeTableRecord
  2
BATTING
 70
0
  3
Batting SSSSSSSSSSSSSSSSSSSSSSSSSSSSSSSSSSSSSSSSSSSSSSS
 72
65
 73
2
 40
2.5425400000000002
 49
0.00254
 74
0
 49
-2.54
 74
0
  0
LTYPE
  5
3D
100
AcDbSymbolTableRecord
100
AcDbLinetypeTableRecord
  2
ACAD_ISO05W100
 70
0
  3
ISO long-dash double-dot ____ .. ____ .. ____ . 
 72
65
 73
6
 40
33.0
 49
24.0
 74
0
 49
-2.9500000000000002
 74
0
 49
0.1
 74
0
 49
-2.8999999999999999
 74
0
 49
0.1
 74
0
 49
-2.9500000000000002
 74
0
  0
LTYPE
  5
3E
100
AcDbSymbolTableRecord
100
AcDbLinetypeTableRecord
  2
ACAD_ISO03W100
 70
0
  3
ISO dash space __    __    __    __    __    __
 72
65
 73
2
 40
30.0
 49
12.0
 74
0
 49
-18.0
 74
0
  0
LTYPE
  5
3F
100
AcDbSymbolTableRecord
100
AcDbLinetypeTableRecord
  2
DASHDOT2
 70
0
  3
Dash dot (.5x) _._._._._._._._._._._._._._._.
 72
65
 73
4
 40
12.6999999999999993
 49
6.3499999999999996
 74
0
 49
-3.125
 74
0
 49
0.1
 74
0
 49
-3.125
 74
0
  0
LTYPE
  5
40
100
AcDbSymbolTableRecord
100
AcDbLinetypeTableRecord
  2
ACAD_ISO13W100
 70
0
  3
ISO double-dash double-dot __ __ . . __ __ . . _
 72
65
 73
8
 40
36.0000000000000071
 49
12.0
 74
0
 49
-3.0
 74
0
 49
12.0
 74
0
 49
-2.9500000000000002
 74
0
 49
0.1
 74
0
 49
-2.8999999999999999
 74
0
 49
0.1
 74
0
 49
-2.9500000000000002
 74
0
  0
LTYPE
  5
15
100
AcDbSymbolTableRecord
100
AcDbLinetypeTableRecord
  2
ByLayer
 70
0
  3

 72
65
 73
0
 40
0.0
  0
LTYPE
  5
41
100
AcDbSymbolTableRecord
100
AcDbLinetypeTableRecord
  2
ACAD_ISO06W100
 70
0
  3
ISO long-dash triple-dot ____ ... ____ ... ____
 72
65
 73
8
 40
36.0000000000000071
 49
24.0
 74
0
 49
-2.9500000000000002
 74
0
 49
0.1
 74
0
 49
-2.8999999999999999
 74
0
 49
0.1
 74
0
 49
-2.8999999999999999
 74
0
 49
0.1
 74
0
 49
-2.9500000000000002
 74
0
  0
LTYPE
  5
42
100
AcDbSymbolTableRecord
100
AcDbLinetypeTableRecord
  2
HOT_WATER_SUPPLY
 70
0
  3
Hot water supply ---- HW ---- HW ---- HW ----
 72
65
 73
2
 40
17.7800000000000011
 49
12.6999999999999993
 74
0
 49
-5.0800000000000001
 74
0
  0
LTYPE
  5
43
100
AcDbSymbolTableRecord
100
AcDbLinetypeTableRecord
  2
CENTER2
 70
0
  3
Center (.5x) ___ _ ___ _ ___ _ ___ _ ___ _ ___
 72
65
 73
4
 40
28.5750000000000028
 49
19.0500000000000007
 74
0
 49
-3.1749999999999998
 74
0
 49
3.1749999999999998
 74
0
 49
-3.1749999999999998
 74
0
  0
LTYPE
  5
44
100
AcDbSymbolTableRecord
100
AcDbLinetypeTableRecord
  2
ZIGZAG
 70
0
  3
Zig zag /\/\/\/\/\/\/\/\/\/\/\/\/\/\/\/\/\/\/\/\/\/\/\/
 72
65
 73
2
 40
5.0825399999999998
 49
0.00254
 74
0
 49
-5.0800000000000001
 74
0
  0
LTYPE
  5
45
100
AcDbSymbolTableRecord
100
AcDbLinetypeTableRecord
  2
CENTERX2
 70
0
  3
Center (2x) ________  __  ________  __  _____
 72
65
 73
4
 40
101.6000000000000085
 49
63.5
 74
0
 49
-12.6999999999999993
 74
0
 49
12.6999999999999993
 74
0
 49
-12.6999999999999993
 74
0
  0
LTYPE
  5
46
100
AcDbSymbolTableRecord
100
AcDbLinetypeTableRecord
  2
ACAD_ISO11W100
 70
0
  3
ISO double-dash dot __ __ . __ __ . __ __ . __ _
 72
65
 73
6
 40
33.0
 49
12.0
 74
0
 49
-3.0
 74
0
 49
12.0
 74
0
 49
-2.9500000000000002
 74
0
 49
0.1
 74
0
 49
-2.9500000000000002
 74
0
  0
LTYPE
  5
47
100
AcDbSymbolTableRecord
100
AcDbLinetypeTableRecord
  2
ACAD_ISO07W100
 70
0
  3
ISO dot . . . . . . . . . . . . . . . . . . . . 
 72
65
 73
2
 40
3.0
 49
0.1
 74
0
 49
-2.8999999999999999
 74
0
  0
LTYPE
  5
14
100
AcDbSymbolTableRecord
100
AcDbLinetypeTableRecord
  2
ByBlock
 70
0
  3

 72
65
 73
0
 40
0.0
  0
LTYPE
  5
48
100
AcDbSymbolTableRecord
100
AcDbLinetypeTableRecord
  2
HIDDEN2
 70
0
  3
Hidden (.5x) _ _ _ _ _ _ _ _ _ _ _ _ _ _ _ _ _ 
 72
65
 73
2
 40
4.7624999999999993
 49
3.1749999999999998
 74
0
 49
-1.5874999999999999
 74
0
  0
LTYPE
  5
49
100
AcDbSymbolTableRecord
100
AcDbLinetypeTableRecord
  2
DRAINAGE2
 70
0
  3
Drainage reversed----<----<----<----
 72
65
 73
1
 40
5.0800000000000001
 49
5.0800000000000001
 74
0
  0
LTYPE
  5
4A
100
AcDbSymbolTableRecord
100
AcDbLinetypeTableRecord
  2
ACAD_ISO14W100
 70
0
  3
ISO dash triple-dot __ . . . __ . . . __ . . . _
 72
65
 73
8
 40
24.0
 49
12.0
 74
0
 49
-2.9500000000000002
 74
0
 49
0.1
 74
0
 49
-2.8999999999999999
 74
0
 49
0.1
 74
0
 49
-2.8999999999999999
 74
0
 49
0.1
 74
0
 49
-2.9500000000000002
 74
0
  0
LTYPE
  5
4B
100
AcDbSymbolTableRecord
100
AcDbLinetypeTableRecord
  2
FENCELINE1
 70
0
  3
Fenceline circle ----0-----0----0-----0----0-----0--
 72
65
 73
2
 40
8.8900000000000006
 49
6.3499999999999996
 74
0
 49
-2.54
 74
0
  0
LTYPE
  5
4C
100
AcDbSymbolTableRecord
100
AcDbLinetypeTableRecord
  2
PHANTOM2
 70
0
  3
Phantom (.5x) ___ _ _ ___ _ _ ___ _ _ ___ _ _
 72
65
 73
6
 40
31.7500000000000036
 49
15.875
 74
0
 49
-3.1749999999999998
 74
0
 49
3.1749999999999998
 74
0
 49
-3.1749999999999998
 74
0
 49
3.1749999999999998
 74
0
 49
-3.1749999999999998
 74
0
  0
LTYPE
  5
4D
100
AcDbSymbolTableRecord
100
AcDbLinetypeTableRecord
  2
DASHED
 70
0
  3
Dashed __ __ __ __ __ __ __ __ __ __ __ __ __ _
 72
65
 73
2
 40
19.0499999999999972
 49
12.6999999999999993
 74
0
 49
-6.3499999999999996
 74
0
  0
LTYPE
  5
4E
100
AcDbSymbolTableRecord
100
AcDbLinetypeTableRecord
  2
DASHDOTX2
 70
0
  3
Dash dot (2x) ____  .  ____  .  ____  .  ___
 72
65
 73
4
 40
50.7999999999999972
 49
25.3999999999999986
 74
0
 49
-12.6500000000000004
 74
0
 49
0.1
 74
0
 49
-12.6500000000000004
 74
0
  0
LTYPE
  5
4F
100
AcDbSymbolTableRecord
100
AcDbLinetypeTableRecord
  2
PHANTOMX2
 70
0
  3
Phantom (2x) ____________    ____    ____   _
 72
65
 73
6
 40
127.0000000000000142
 49
63.5
 74
0
 49
-12.6999999999999993
 74
0
 49
12.6999999999999993
 74
0
 49
-12.6999999999999993
 74
0
 49
12.6999999999999993
 74
0
 49
-12.6999999999999993
 74
0
  0
LTYPE
  5
50
100
AcDbSymbolTableRecord
100
AcDbLinetypeTableRecord
  2
ACAD_ISO10W100
 70
0
  3
ISO dash dot __ . __ . __ . __ . __ . __ . __ . 
 72
65
 73
4
 40
18.0
 49
12.0
 74
0
 49
-2.9500000000000002
 74
0
 49
0.1
 74
0
 49
-2.9500000000000002
 74
0
  0
LTYPE
  5
51
100
AcDbSymbolTableRecord
100
AcDbLinetypeTableRecord
  2
ACAD_ISO15W100
 70
0
  3
ISO double-dash triple-dot __ __ . . . __ __ . .
 72
65
 73
10
 40
39.0000000000000071
 49
12.0
 74
0
 49
-3.0
 74
0
 49
12.0
 74
0
 49
-2.9500000000000002
 74
0
 49
0.1
 74
0
 49
-2.8999999999999999
 74
0
 49
0.1
 74
0
 49
-2.8999999999999999
 74
0
 49
0.1
 74
0
 49
-2.9500000000000002
 74
0
  0
LTYPE
  5
52
100
AcDbSymbolTableRecord
100
AcDbLinetypeTableRecord
  2
ACAD_ISO12W100
 70
0
  3
ISO dash double-dot __ . . __ . . __ . . __ . . 
 72
65
 73
6
 40
21.0
 49
12.0
 74
0
 49
-2.9500000000000002
 74
0
 49
0.1
 74
0
 49
-2.8999999999999999
 74
0
 49
0.1
 74
0
 49
-2.9500000000000002
 74
0
  0
LTYPE
  5
53
100
AcDbSymbolTableRecord
100
AcDbLinetypeTableRecord
  2
DRAINAGE
 70
0
  3
Drainage ---->---->---->----
 72
65
 73
1
 40
5.0800000000000001
 49
5.0800000000000001
 74
0
  0
LTYPE
  5
54
100
AcDbSymbolTableRecord
100
AcDbLinetypeTableRecord
  2
DASHED2
 70
0
  3
Dashed (.5x) _ _ _ _ _ _ _ _ _ _ _ _ _ _ _ _ _ 
 72
65
 73
2
 40
9.5249999999999986
 49
6.3499999999999996
 74
0
 49
-3.1749999999999998
 74
0
  0
LTYPE
  5
55
100
AcDbSymbolTableRecord
100
AcDbLinetypeTableRecord
  2
TRACKS
 70
0
  3
Tracks -|-|-|-|-|-|-|-|-|-|-|-|-|-|-|-|-|-|-|-|-|-|-|-|-
 72
65
 73
1
 40
3.8100000000000001
 49
3.8100000000000001
 74
0
  0
LTYPE
  5
56
100
AcDbSymbolTableRecord
100
AcDbLinetypeTableRecord
  2
ACAD_ISO08W100
 70
0
  3
ISO long-dash short-dash ____ __ ____ __ ____ _
 72
65
 73
4
 40
36.0
 49
24.0
 74
0
 49
-3.0
 74
0
 49
6.0
 74
0
 49
-3.0
 74
0
  0
LTYPE
  5
57
100
AcDbSymbolTableRecord
100
AcDbLinetypeTableRecord
  2
GAS_LINE
 70
0
  3
Gas line ----GAS----GAS----GAS----GAS----GAS----GAS--
 72
65
 73
2
 40
17.7800000000000011
 49
12.6999999999999993
 74
0
 49
-5.0800000000000001
 74
0
  0
LTYPE
  5
58
100
AcDbSymbolTableRecord
100
AcDbLinetypeTableRecord
  2
HIDDENX2
 70
0
  3
Hidden (2x) ____ ____ ____ ____ ____ ____ ____ 
 72
65
 73
2
 40
19.0499999999999972
 49
12.6999999999999993
 74
0
 49
-6.3499999999999996
 74
0
  0
LTYPE
  5
59
100
AcDbSymbolTableRecord
100
AcDbLinetypeTableRecord
  2
DIVIDE
 70
0
  3
Divide ____ . . ____ . . ____ . . ____ . . ____
 72
65
 73
6
 40
31.7500000000000036
 49
12.6999999999999993
 74
0
 49
-6.2999999999999998
 74
0
 49
0.1
 74
0
 49
-6.25
 74
0
 49
0.1
 74
0
 49
-6.2999999999999998
 74
0
  0
LTYPE
  5
5A
100
AcDbSymbolTableRecord
100
AcDbLinetypeTableRecord
  2
DIVIDE2
 70
0
  3
Divide (.5x) __..__..__..__..__..__..__..__.._
 72
65
 73
6
 40
15.8749999999999982
 49
6.3499999999999996
 74
0
 49
-3.125
 74
0
 49
0.1
 74
0
 49
-3.0750000000000002
 74
0
 49
0.1
 74
0
 49
-3.125
 74
0
  0
LTYPE
  5
5B
100
AcDbSymbolTableRecord
100
AcDbLinetypeTableRecord
  2
ACAD_ISO02W100
 70
0
  3
ISO dash __ __ __ __ __ __ __ __ __ __ __ __ __
 72
65
 73
2
 40
15.0
 49
12.0
 74
0
 49
-3.0
 74
0
  0
LTYPE
  5
5C
100
AcDbSymbolTableRecord
100
AcDbLinetypeTableRecord
  2
PHANTOM
 70
0
  3
Phantom ______  __  __  ______  __  __  ______ 
 72
65
 73
6
 40
63.5000000000000071
 49
31.75
 74
0
 49
-6.3499999999999996
 74
0
 49
6.3499999999999996
 74
0
 49
-6.3499999999999996
 74
0
 49
6.3499999999999996
 74
0
 49
-6.3499999999999996
 74
0
  0
LTYPE
  5
5D
100
AcDbSymbolTableRecord
100
AcDbLinetypeTableRecord
  2
ACAD_ISO04W100
 70
0
  3
ISO long-dash dot ____ . ____ . ____ . ____ . _
 72
65
 73
4
 40
30.0
 49
24.0
 74
0
 49
-2.9500000000000002
 74
0
 49
0.1
 74
0
 49
-2.9500000000000002
 74
0
  0
LTYPE
  5
5E
100
AcDbSymbolTableRecord
100
AcDbLinetypeTableRecord
  2
DASHEDX2
 70
0
  3
Dashed (2x) ____  ____  ____  ____  ____  ___
 72
65
 73
2
 40
38.0999999999999943
 49
25.3999999999999986
 74
0
 49
-12.6999999999999993
 74
0
  0
LTYPE
  5
5F
100
AcDbSymbolTableRecord
100
AcDbLinetypeTableRecord
  2
BORDER
 70
0
  3
Border __ __ . __ __ . __ __ . __ __ . __ __ .
 72
65
 73
6
 40
44.4499999999999957
 49
12.6999999999999993
 74
0
 49
-6.3499999999999996
 74
0
 49
12.6999999999999993
 74
0
 49
-6.2999999999999998
 74
0
 49
0.1
 74
0
 49
-6.2999999999999998
 74
0
  0
ENDTAB
  0
TABLE
  2
LAYER
  5
2
100
AcDbSymbolTable
 70
5
  0
LAYER
  5
60
100
AcDbSymbolTableRecord
100
AcDbLayerTableRecord
  2
1.Shapes
 70
0
 62
7
420
16777215
  6
Continuous
370
25
390
F
  0
LAYER
  5
61
100
AcDbSymbolTableRecord
100
AcDbLayerTableRecord
  2
3.Labels
 70
0
 62
7
420
16777215
  6
Continuous
370
25
390
F
  0
LAYER
  5
62
100
AcDbSymbolTableRecord
100
AcDbLayerTableRecord
  2
4.Center marks
 70
0
 62
7
420
16777215
  6
CENTER2
370
25
390
F
  0
LAYER
  5
10
100
AcDbSymbolTableRecord
100
AcDbLayerTableRecord
  2
0
 70
5
 62
7
420
16777215
  6
Continuous
370
25
390
F
  0
LAYER
  5
63
100
AcDbSymbolTableRecord
100
AcDbLayerTableRecord
  2
2.Dimensions
 70
0
 62
7
420
16777215
  6
Continuous
370
25
390
F
  0
ENDTAB
  0
TABLE
  2
STYLE
  5
3
100
AcDbSymbolTable
 70
13
  0
STYLE
  5
64
100
AcDbSymbolTableRecord
100
AcDbTextStyleTableRecord
  2
Standard
 70
0
 40
0.0
 41
1.0
 50
0.0
 71
0
 42
2.5
  3

  4

1001
ACAD
1000
txt
1071
0
  0
STYLE
  5
65
100
AcDbSymbolTableRecord
100
AcDbTextStyleTableRecord
  2
textstyle0
 70
0
 40
0.0
 41
1.0
 50
0.0
 71
0
 42
2.0
  3

  4

1001
ACAD
1000
Iosevka Custom
1071
0
  0
STYLE
  5
66
100
AcDbSymbolTableRecord
100
AcDbTextStyleTableRecord
  2
textstyle1
 70
0
 40
0.0
 41
1.0
 50
0.0
 71
0
 42
2.0
  3

  4

1001
ACAD
1000
Iosevka Custom
1071
0
  0
STYLE
  5
67
100
AcDbSymbolTableRecord
100
AcDbTextStyleTableRecord
  2
textstyle2
 70
0
 40
0.0
 41
1.0
 50
0.0
 71
0
 42
2.0
  3

  4

1001
ACAD
1000
Iosevka Custom
1071
0
  0
STYLE
  5
68
100
AcDbSymbolTableRecord
100
AcDbTextStyleTableRecord
  2
textstyle3
 70
0
 40
0.0
 41
1.0
 50
0.0
 71
0
 42
2.0
  3

  4

1001
ACAD
1000
Iosevka Custom
1071
0
  0
STYLE
  5
69
100
AcDbSymbolTableRecord
100
AcDbTextStyleTableRecord
  2
textstyle4
 70
0
 40
0.0
 41
1.0
 50
0.0
 71
0
 42
2.0
  3

  4

1001
ACAD
1000
Iosevka Custom
1071
0
  0
STYLE
  5
6A
100
AcDbSymbolTableRecord
100
AcDbTextStyleTableRecord
  2
textstyle5
 70
0
 40
0.0
 41
1.0
 50
0.0
 71
0
 42
2.0
  3

  4

1001
ACAD
1000
Iosevka Custom
1071
0
  0
STYLE
  5
6B
100
AcDbSymbolTableRecord
100
AcDbTextStyleTableRecord
  2
textstyle6
 70
0
 40
0.0
 41
1.0
 50
0.0
 71
0
 42
2.0
  3

  4

1001
ACAD
1000
Iosevka Custom
1071
0
  0
STYLE
  5
6C
100
AcDbSymbolTableRecord
100
AcDbTextStyleTableRecord
  2
textstyle7
 70
0
 40
0.0
 41
1.0
 50
0.0
 71
0
 42
2.0
  3

  4

1001
ACAD
1000
Iosevka Custom
1071
0
  0
STYLE
  5
6D
100
AcDbSymbolTableRecord
100
AcDbTextStyleTableRecord
  2
textstyle8
 70
0
 40
0.0
 41
1.0
 50
0.0
 71
0
 42
2.0
  3

  4

1001
ACAD
1000
Iosevka Custom
1071
0
  0
STYLE
  5
6E
100
AcDbSymbolTableRecord
100
AcDbTextStyleTableRecord
  2
textstyle9
 70
0
 40
0.0
 41
1.0
 50
0.0
 71
0
 42
2.0
  3

  4

1001
ACAD
1000
Iosevka Custom
1071
0
  0
STYLE
  5
6F
100
AcDbSymbolTableRecord
100
AcDbTextStyleTableRecord
  2
textstyle10
 70
0
 40
0.0
 41
1.0
 50
0.0
 71
0
 42
2.0
  3

  4

1001
ACAD
1000
Iosevka Custom
1071
0
  0
STYLE
  5
70
100
AcDbSymbolTableRecord
100
AcDbTextStyleTableRecord
  2
textstyle11
 70
0
 40
0.0
 41
1.0
 50
0.0
 71
0
 42
2.0
  3

  4

1001
ACAD
1000
Iosevka Custom
1071
0
  0
ENDTAB
  0
TABLE
  2
VIEW
  5
6
100
AcDbSymbolTable
 70
0
  0
ENDTAB
  0
TABLE
  2
UCS
  5
7
100
AcDbSymbolTable
 70
0
  0
ENDTAB
  0
TABLE
  2
APPID
  5
9
100
AcDbSymbolTable
 70
1
  0
APPID
  5
12
100
AcDbSymbolTableRecord
100
AcDbRegAppTableRecord
  2
ACAD
 70
0
  0
APPID
  5
71
100
AcDbSymbolTableRecord
100
AcDbRegAppTableRecord
  2
QCAD
 70
0
  0
ENDTAB
  0
TABLE
  2
DIMSTYLE
  5
A
100
AcDbSymbolTable
 70
1
100
AcDbDimStyleTable
 71
0
  0
DIMSTYLE
105
27
100
AcDbSymbolTableRecord
100
AcDbDimStyleTableRecord
  2
Standard
 41
2.5
 42
0.625
 43
3.75
 44
1.25
 70
0
 73
0
 74
0
 77
1
 78
8
140
2.5
141
2.5
143
0.03937007874016
147
0.625
171
3
172
1
271
2
272
2
274
3
278
44
283
0
284
8
340
64
  0
ENDTAB
  0
TABLE
  2
BLOCK_RECORD
  5
1
100
AcDbSymbolTable
 70
1
  0
BLOCK_RECORD
  5
1F
100
AcDbSymbolTableRecord
100
AcDbBlockTableRecord
  2
*Model_Space
340
22
  0
BLOCK_RECORD
  5
1B
100
AcDbSymbolTableRecord
100
AcDbBlockTableRecord
  2
*Paper_Space
340
1E
  0
BLOCK_RECORD
  5
23
100
AcDbSymbolTableRecord
100
AcDbBlockTableRecord
  2
*Paper_Space0
340
26
  0
ENDTAB
  0
ENDSEC
  0
SECTION
  2
BLOCKS
  0
BLOCK
  5
20
100
AcDbEntity
  8
0
100
AcDbBlockBegin
  2
*Model_Space
 70
0
 10
0.0
 20
0.0
 30
0.0
  3
*Model_Space
  1

  0
ENDBLK
  5
21
100
AcDbEntity
  8
0
100
AcDbBlockEnd
  0
BLOCK
  5
1C
100
AcDbEntity
 67
1
  8
0
100
AcDbBlockBegin
  2
*Paper_Space
 70
0
 10
0.0
 20
0.0
 30
0.0
  3
*Paper_Space
  1

  0
ENDBLK
  5
1D
100
AcDbEntity
 67
1
  8
0
100
AcDbBlockEnd
  0
BLOCK
  5
24
100
AcDbEntity
  8
0
100
AcDbBlockBegin
  2
*Paper_Space0
 70
0
 10
0.0
 20
0.0
 30
0.0
  3
*Paper_Space0
  1

  0
ENDBLK
  5
25
100
AcDbEntity
  8
0
100
AcDbBlockEnd
  0
ENDSEC
  0
SECTION
  2
ENTITIES
  0
CIRCLE
  5
72
100
AcDbEntity
  8
1.Shapes
 62
256
370
-1
 48
1.0
  6
ByLayer
100
AcDbCircle
 10
73.0
 20
32.0
 30
0.0
 40
3.0
  0
CIRCLE
  5
73
100
AcDbEntity
  8
1.Shapes
 62
256
370
-1
 48
1.0
  6
ByLayer
100
AcDbCircle
 10
73.0
 20
20.0
 30
0.0
 40
3.0
  0
CIRCLE
  5
74
100
AcDbEntity
  8
1.Shapes
 62
256
370
-1
 48
1.0
  6
ByLayer
100
AcDbCircle
 10
73.0
 20
8.0
 30
0.0
 40
3.0
  0
CIRCLE
  5
75
100
AcDbEntity
  8
1.Shapes
 62
256
370
-1
 48
1.0
  6
ByLayer
100
AcDbCircle
 10
79.0
 20
32.0
 30
0.0
 40
1.25
  0
CIRCLE
  5
76
100
AcDbEntity
  8
1.Shapes
 62
256
370
-1
 48
1.0
  6
ByLayer
100
AcDbCircle
 10
79.0
 20
20.0
 30
0.0
 40
1.25
  0
CIRCLE
  5
77
100
AcDbEntity
  8
1.Shapes
 62
256
370
-1
 48
1.0
  6
ByLayer
100
AcDbCircle
 10
79.0
 20
8.0
 30
0.0
 40
1.25
  0
DIMENSION
  5
78
100
AcDbEntity
  8
2.Dimensions
 62
256
370
-1
 48
1.0
  6
ByLayer
100
AcDbDimension
 10
70.9931058051326431
 20
34.2298824387414982
 30
0.0
 11
79.0
 21
27.9999999999999929
 31
0.0
 70
131
 71
8
 72
2
 74
0
 75
0
 41
1.0
 42
0.0
  1

  3
Standard
100
AcDbDiametricDimension
 15
75.0068941948673569
 25
29.7701175612585764
 35
0.0
 40
0.0
1001
ACAD
1000
DSTYLE
1002
{
1070
279
1070
2
1070
144
1040
1.0
1070
40
1040
1.0
1002
}
  0
DIMENSION
  5
79
100
AcDbEntity
  8
2.Dimensions
 62
256
370
-1
 48
1.0
  6
ByLayer
100
AcDbDimension
 10
73.0
 20
1.9999999999998757
 30
0.0
 11
76.0
 21
3.8749999999998757
 31
0.0
 70
0
 71
8
 72
2
 74
0
 75
0
 41
1.0
 42
0.0
  1

  3
Standard
100
AcDbAlignedDimension
 13
73.0
 23
5.0000000000000817
 33
0.0
 14
79.0
 24
6.7499999999998286
 34
0.0
 50
0.0
100
AcDbRotatedDimension
1001
ACAD
1000
DSTYLE
1002
{
1070
144
1040
1.0
1070
40
1040
1.0
1002
}
  0
LINE
  5
7A
100
AcDbEntity
  8
4.Center marks
 62
256
370
-1
 48
1.0
  6
ByLayer
100
AcDbLine
 10
70.0
 20
20.0
 30
0.0
 11
76.0
 21
20.0
 31
0.0
  0
LINE
  5
7B
100
AcDbEntity
  8
4.Center marks
 62
256
370
-1
 48
1.0
  6
ByLayer
100
AcDbLine
 10
73.0
 20
17.0
 30
0.0
 11
73.0
 21
23.0
 31
0.0
  0
LINE
  5
7C
100
AcDbEntity
  8
4.Center marks
 62
256
370
-1
 48
1.0
  6
ByLayer
100
AcDbLine
 10
70.0
 20
32.0
 30
0.0
 11
76.0
 21
32.0
 31
0.0
  0
LINE
  5
7D
100
AcDbEntity
  8
4.Center marks
 62
256
370
-1
 48
1.0
  6
ByLayer
100
AcDbLine
 10
73.0
 20
29.0
 30
0.0
 11
73.0
 21
35.0
 31
0.0
  0
LINE
  5
7E
100
AcDbEntity
  8
4.Center marks
 62
256
370
-1
 48
1.0
  6
ByLayer
100
AcDbLine
 10
77.75
 20
32.0
 30
0.0
 11
80.25
 21
32.0
 31
0.0
  0
LINE
  5
7F
100
AcDbEntity
  8
4.Center marks
 62
256
370
-1
 48
1.0
  6
ByLayer
100
AcDbLine
 10
79.0
 20
30.75
 30
0.0
 11
79.0
 21
33.25
 31
0.0
  0
LINE
  5
80
100
AcDbEntity
  8
4.Center marks
 62
256
370
-1
 48
1.0
  6
ByLayer
100
AcDbLine
 10
70.0
 20
8.0
 30
0.0
 11
76.0
 21
8.0
 31
0.0
  0
LINE
  5
81
100
AcDbEntity
  8
4.Center marks
 62
256
370
-1
 48
1.0
  6
ByLayer
100
AcDbLine
 10
73.0
 20
5.0
 30
0.0
 11
73.0
 21
11.0
 31
0.0
  0
LINE
  5
82
100
AcDbEntity
  8
4.Center marks
 62
256
370
-1
 48
1.0
  6
ByLayer
100
AcDbLine
 10
77.75
 20
8.0
 30
0.0
 11
80.25
 21
8.0
 31
0.0
  0
LINE
  5
83
100
AcDbEntity
  8
4.Center marks
 62
256
370
-1
 48
1.0
  6
ByLayer
100
AcDbLine
 10
79.0
 20
6.75
 30
0.0
 11
79.0
 21
9.25
 31
0.0
  0
LINE
  5
84
100
AcDbEntity
  8
4.Center marks
 62
256
370
-1
 48
1.0
  6
ByLayer
100
AcDbLine
 10
77.75
 20
20.0
 30
0.0
 11
80.25
 21
20.0
 31
0.0
  0
LINE
  5
85
100
AcDbEntity
  8
4.Center marks
 62
256
370
-1
 48
1.0
  6
ByLayer
100
AcDbLine
 10
79.0
 20
18.75
 30
0.0
 11
79.0
 21
21.25
 31
0.0
  0
CIRCLE
  5
86
100
AcDbEntity
  8
1.Shapes
 62
256
370
-1
 48
1.0
  6
ByLayer
100
AcDbCircle
 10
61.75
 20
32.0
 30
0.0
 40
2.75
  0
CIRCLE
  5
87
100
AcDbEntity
  8
1.Shapes
 62
256
370
-1
 48
1.0
  6
ByLayer
100
AcDbCircle
 10
61.75
 20
20.0
 30
0.0
 40
2.75
  0
CIRCLE
  5
88
100
AcDbEntity
  8
1.Shapes
 62
256
370
-1
 48
1.0
  6
ByLayer
100
AcDbCircle
 10
61.75
 20
8.0
 30
0.0
 40
2.75
  0
CIRCLE
  5
89
100
AcDbEntity
  8
1.Shapes
 62
256
370
-1
 48
1.0
  6
ByLayer
100
AcDbCircle
 10
87.25
 20
32.0
 30
0.0
 40
3.25
  0
CIRCLE
  5
8A
100
AcDbEntity
  8
1.Shapes
 62
256
370
-1
 48
1.0
  6
ByLayer
100
AcDbCircle
 10
87.25
 20
20.0
 30
0.0
 40
3.25
  0
CIRCLE
  5
8B
100
AcDbEntity
  8
1.Shapes
 62
256
370
-1
 48
1.0
  6
ByLayer
100
AcDbCircle
 10
87.25
 20
8.0
 30
0.0
 40
3.25
  0
LINE
  5
8C
100
AcDbEntity
  8
1.Shapes
 62
256
370
-1
 48
1.0
  6
ByLayer
100
AcDbLine
 10
0.0
 20
0.0
 30
0.0
 11
200.0
 21
0.0
 31
0.0
  0
LINE
  5
8D
100
AcDbEntity
  8
1.Shapes
 62
256
370
-1
 48
1.0
  6
ByLayer
100
AcDbLine
 10
200.0
 20
0.0
 30
0.0
 11
200.0
 21
40.0
 31
0.0
  0
LINE
  5
8E
100
AcDbEntity
  8
1.Shapes
 62
256
370
-1
 48
1.0
  6
ByLayer
100
AcDbLine
 10
200.0
 20
40.0
 30
0.0
 11
0.0
 21
40.0
 31
0.0
  0
LINE
  5
8F
100
AcDbEntity
  8
1.Shapes
 62
256
370
-1
 48
1.0
  6
ByLayer
100
AcDbLine
 10
0.0
 20
40.0
 30
0.0
 11
0.0
 21
0.0
 31
0.0
  0
DIMENSION
  5
90
100
AcDbEntity
  8
2.Dimensions
 62
256
370
-1
 48
1.0
  6
ByLayer
100
AcDbDimension
 10
-3.6557491646223497
 20
40.0
 30
0.0
 11
-5.5307491646223497
 21
20.0
 31
0.0
 70
0
 71
8
 72
1
 74
0
 75
0
 41
1.0
 42
0.0
  1

  3
Standard
100
AcDbAlignedDimension
 13
0.0
 23
40.0
 33
0.0
 14
0.0
 24
0.0
 34
0.0
 50
90.0
100
AcDbRotatedDimension
1001
ACAD
1000
DSTYLE
1002
{
1070
144
1040
1.0
1070
40
1040
1.0
1002
}
  0
DIMENSION
  5
91
100
AcDbEntity
  8
2.Dimensions
 62
256
370
-1
 48
1.0
  6
ByLayer
100
AcDbDimension
 10
0.0
 20
43.6202450308782232
 30
0.0
 11
100.0
 21
45.4952450308782232
 31
0.0
 70
0
 71
8
 72
1
 74
0
 75
0
 41
1.0
 42
0.0
  1

  3
Standard
100
AcDbAlignedDimension
 13
0.0
 23
40.0
 33
0.0
 14
200.0
 24
40.0
 34
0.0
 50
0.0
100
AcDbRotatedDimension
1001
ACAD
1000
DSTYLE
1002
{
1070
144
1040
1.0
1070
40
1040
1.0
1002
}
  0
LINE
  5
92
100
AcDbEntity
  8
1.Shapes
 62
256
370
-1
 48
1.0
  6
ByLayer
100
AcDbLine
 10
7.0
 20
23.0
 30
0.0
 11
29.5
 21
23.0
 31
0.0
  0
LINE
  5
93
100
AcDbEntity
  8
1.Shapes
 62
256
370
-1
 48
1.0
  6
ByLayer
100
AcDbLine
 10
7.0
 20
7.0
 30
0.0
 11
29.5
 21
7.0
 31
0.0
  0
LINE
  5
94
100
AcDbEntity
  8
1.Shapes
 62
256
370
-1
 48
1.0
  6
ByLayer
100
AcDbLine
 10
29.5
 20
23.0
 30
0.0
 11
29.5
 21
33.0
 31
0.0
  0
LINE
  5
95
100
AcDbEntity
  8
1.Shapes
 62
256
370
-1
 48
1.0
  6
ByLayer
100
AcDbLine
 10
29.5
 20
7.0
 30
0.0
 11
29.5
 21
17.0
 31
0.0
  0
LINE
  5
96
100
AcDbEntity
  8
1.Shapes
 62
256
370
-1
 48
1.0
  6
ByLayer
100
AcDbLine
 10
29.5
 20
33.0
 30
0.0
 11
7.0
 21
33.0
 31
0.0
  0
LINE
  5
97
100
AcDbEntity
  8
1.Shapes
 62
256
370
-1
 48
1.0
  6
ByLayer
100
AcDbLine
 10
29.5
 20
17.0
 30
0.0
 11
7.0
 21
17.0
 31
0.0
  0
LINE
  5
98
100
AcDbEntity
  8
1.Shapes
 62
256
370
-1
 48
1.0
  6
ByLayer
100
AcDbLine
 10
7.0
 20
33.0
 30
0.0
 11
7.0
 21
23.0
 31
0.0
  0
LINE
  5
99
100
AcDbEntity
  8
1.Shapes
 62
256
370
-1
 48
1.0
  6
ByLayer
100
AcDbLine
 10
7.0
 20
17.0
 30
0.0
 11
7.0
 21
7.0
 31
0.0
  0
CIRCLE
  5
9A
100
AcDbEntity
  8
1.Shapes
 62
256
370
-1
 48
1.0
  6
ByLayer
100
AcDbCircle
 10
31.25
 20
28.0
 30
0.0
 40
1.0
  0
CIRCLE
  5
9B
100
AcDbEntity
  8
1.Shapes
 62
256
370
-1
 48
1.0
  6
ByLayer
100
AcDbCircle
 10
31.25
 20
12.0
 30
0.0
 40
1.0
  0
CIRCLE
  5
9C
100
AcDbEntity
  8
1.Shapes
 62
256
370
-1
 48
1.0
  6
ByLayer
100
AcDbCircle
 10
5.25
 20
28.0
 30
0.0
 40
1.0
  0
CIRCLE
  5
9D
100
AcDbEntity
  8
1.Shapes
 62
256
370
-1
 48
1.0
  6
ByLayer
100
AcDbCircle
 10
5.25
 20
12.0
 30
0.0
 40
1.0
  0
LINE
  5
9E
100
AcDbEntity
  8
1.Shapes
 62
256
370
-1
 48
1.0
  6
ByLayer
100
AcDbLine
 10
51.7500000000000142
 20
7.4999999999999964
 30
0.0
 11
51.75
 21
15.9999999999999964
 31
0.0
  0
LINE
  5
9F
100
AcDbEntity
  8
1.Shapes
 62
256
370
-1
 48
1.0
  6
ByLayer
100
AcDbLine
 10
51.75
 20
15.9999999999999964
 30
0.0
 11
38.25
 21
16.0
 31
0.0
  0
LINE
  5
A0
100
AcDbEntity
  8
1.Shapes
 62
256
370
-1
 48
1.0
  6
ByLayer
100
AcDbLine
 10
38.25
 20
16.0
 30
0.0
 11
38.25
 21
7.5000000000000018
 31
0.0
  0
LINE
  5
A1
100
AcDbEntity
  8
1.Shapes
 62
256
370
-1
 48
1.0
  6
ByLayer
100
AcDbLine
 10
38.25
 20
7.5000000000000018
 30
0.0
 11
51.7500000000000142
 21
7.4999999999999956
 31
0.0
  0
LINE
  5
A2
100
AcDbEntity
  8
1.Shapes
 62
256
370
-1
 48
1.0
  6
ByLayer
100
AcDbLine
 10
51.75
 20
23.5
 30
0.0
 11
51.75
 21
32.0
 31
0.0
  0
LINE
  5
A3
100
AcDbEntity
  8
1.Shapes
 62
256
370
-1
 48
1.0
  6
ByLayer
100
AcDbLine
 10
51.75
 20
32.0
 30
0.0
 11
38.25
 21
32.0
 31
0.0
  0
LINE
  5
A4
100
AcDbEntity
  8
1.Shapes
 62
256
370
-1
 48
1.0
  6
ByLayer
100
AcDbLine
 10
38.25
 20
32.0
 30
0.0
 11
38.25
 21
23.4999999999999964
 31
0.0
  0
LINE
  5
A5
100
AcDbEntity
  8
1.Shapes
 62
256
370
-1
 48
1.0
  6
ByLayer
100
AcDbLine
 10
38.25
 20
23.4999999999999964
 30
0.0
 11
51.75
 21
23.5
 31
0.0
  0
CIRCLE
  5
A6
100
AcDbEntity
  8
1.Shapes
 62
256
370
-1
 48
1.0
  6
ByLayer
100
AcDbCircle
 10
189.0
 20
28.0
 30
0.0
 40
5.0
  0
CIRCLE
  5
A7
100
AcDbEntity
  8
1.Shapes
 62
256
370
-1
 48
1.0
  6
ByLayer
100
AcDbCircle
 10
189.0
 20
12.0
 30
0.0
 40
5.0
  0
CIRCLE
  5
A8
100
AcDbEntity
  8
1.Shapes
 62
256
370
-1
 48
1.0
  6
ByLayer
100
AcDbCircle
 10
180.5427664129268237
 20
24.9218187100689832
 30
0.0
 40
1.25
  0
CIRCLE
  5
A9
100
AcDbEntity
  8
1.Shapes
 62
256
370
-1
 48
1.0
  6
ByLayer
100
AcDbCircle
 10
180.5427664129268237
 20
8.9218187100689832
 30
0.0
 40
1.25
  0
CIRCLE
  5
AA
100
AcDbEntity
  8
1.Shapes
 62
256
370
-1
 48
1.0
  6
ByLayer
100
AcDbCircle
 10
108.5
 20
32.0
 30
0.0
 40
1.25
  0
CIRCLE
  5
AB
100
AcDbEntity
  8
1.Shapes
 62
256
370
-1
 48
1.0
  6
ByLayer
100
AcDbCircle
 10
108.5
 20
20.0
 30
0.0
 40
1.25
  0
CIRCLE
  5
AC
100
AcDbEntity
  8
1.Shapes
 62
256
370
-1
 48
1.0
  6
ByLayer
100
AcDbCircle
 10
108.5
 20
8.0
 30
0.0
 40
1.25
  0
CIRCLE
  5
AD
100
AcDbEntity
  8
1.Shapes
 62
256
370
-1
 48
1.0
  6
ByLayer
100
AcDbCircle
 10
100.5
 20
32.0
 30
0.0
 40
3.5
  0
CIRCLE
  5
AE
100
AcDbEntity
  8
1.Shapes
 62
256
370
-1
 48
1.0
  6
ByLayer
100
AcDbCircle
 10
117.75
 20
32.0
 30
0.0
 40
3.75
  0
CIRCLE
  5
AF
100
AcDbEntity
  8
1.Shapes
 62
256
370
-1
 48
1.0
  6
ByLayer
100
AcDbCircle
 10
100.5
 20
20.0
 30
0.0
 40
3.5
  0
CIRCLE
  5
B0
100
AcDbEntity
  8
1.Shapes
 62
256
370
-1
 48
1.0
  6
ByLayer
100
AcDbCircle
 10
117.75
 20
20.0
 30
0.0
 40
3.75
  0
CIRCLE
  5
B1
100
AcDbEntity
  8
1.Shapes
 62
256
370
-1
 48
1.0
  6
ByLayer
100
AcDbCircle
 10
100.5
 20
8.0
 30
0.0
 40
3.5
  0
CIRCLE
  5
B2
100
AcDbEntity
  8
1.Shapes
 62
256
370
-1
 48
1.0
  6
ByLayer
100
AcDbCircle
 10
117.75
 20
8.0
 30
0.0
 40
3.75
  0
MTEXT
  5
B3
100
AcDbEntity
  8
3.Labels
 62
256
370
-1
 48
1.0
  6
ByLayer
100
AcDbMText
 10
21.0
 20
39.0
 30
0.0
 40
2.0
 41
0.0
 71
1
 72
1
  1
Mounts 2, helpers 3
  7
textstyle0
 50
0.0
 73
1
 44
1.0
  0
MTEXT
  5
B4
100
AcDbEntity
  8
3.Labels
 62
256
370
-1
 48
1.0
  6
ByLayer
100
AcDbMText
 10
104.0
 20
39.0
 30
0.0
 40
2.0
 41
0.0
 71
1
 72
1
  1
All lock holes 2.5
  7
textstyle1
 50
0.0
 73
1
 44
1.0
  0
DIMENSION
  5
B5
100
AcDbEntity
  8
2.Dimensions
 62
256
370
-1
 48
1.0
  6
ByLayer
100
AcDbDimension
 10
7.0
 20
2.0000000000000746
 30
0.0
 11
18.25
 21
3.8750000000000746
 31
0.0
 70
0
 71
8
 72
2
 74
0
 75
0
 41
1.0
 42
0.0
  1

  3
Standard
100
AcDbAlignedDimension
 13
7.0
 23
6.9999999999999929
 33
0.0
 14
29.5
 24
7.0000000000000941
 34
0.0
 50
0.0
100
AcDbRotatedDimension
1001
ACAD
1000
DSTYLE
1002
{
1070
144
1040
1.0
1070
40
1040
1.0
1002
}
  0
DIMENSION
  5
B6
100
AcDbEntity
  8
2.Dimensions
 62
256
370
-1
 48
1.0
  6
ByLayer
100
AcDbDimension
 10
102.9748737341529079
 20
29.5251262658470246
 30
0.0
 11
105.4755273499175416
 21
29.9666650648103179
 31
0.0
 70
131
 71
8
 72
2
 74
0
 75
0
 41
1.0
 42
0.0
  1

  3
Standard
100
AcDbDiametricDimension
 15
98.0251262658470921
 25
34.474873734152915
 35
0.0
 40
0.0
1001
ACAD
1000
DSTYLE
1002
{
1070
279
1070
2
1070
144
1040
1.0
1070
40
1040
1.0
1002
}
  0
DIMENSION
  5
B7
100
AcDbEntity
  8
2.Dimensions
 62
256
370
-1
 48
1.0
  6
ByLayer
100
AcDbDimension
 10
100.5
 20
1.9999999999995215
 30
0.0
 11
104.5
 21
3.8749999999995213
 31
0.0
 70
0
 71
8
 72
2
 74
0
 75
0
 41
1.0
 42
0.0
  1

  3
Standard
100
AcDbAlignedDimension
 13
100.5
 23
4.5000000000003704
 33
0.0
 14
108.5
 24
6.7499999999996723
 34
0.0
 50
0.0
100
AcDbRotatedDimension
1001
ACAD
1000
DSTYLE
1002
{
1070
144
1040
1.0
1070
40
1040
1.0
1002
}
  0
CIRCLE
  5
B8
100
AcDbEntity
  8
1.Shapes
 62
256
370
-1
 48
1.0
  6
ByLayer
100
AcDbCircle
 10
133.0
 20
32.0
 30
0.0
 40
4.0
  0
CIRCLE
  5
B9
100
AcDbEntity
  8
1.Shapes
 62
256
370
-1
 48
1.0
  6
ByLayer
100
AcDbCircle
 10
147.25
 20
32.0
 30
0.0
 40
4.25
  0
CIRCLE
  5
BA
100
AcDbEntity
  8
1.Shapes
 62
256
370
-1
 48
1.0
  6
ByLayer
100
AcDbCircle
 10
160.0
 20
23.5
 30
0.0
 40
4.5
  0
CIRCLE
  5
BB
100
AcDbEntity
  8
1.Shapes
 62
256
370
-1
 48
1.0
  6
ByLayer
100
AcDbCircle
 10
173.75
 20
32.0
 30
0.0
 40
4.75
  0
CIRCLE
  5
BC
100
AcDbEntity
  8
1.Shapes
 62
256
370
-1
 48
1.0
  6
ByLayer
100
AcDbCircle
 10
133.0
 20
19.9999999999999964
 30
0.0
 40
4.0
  0
CIRCLE
  5
BD
100
AcDbEntity
  8
1.Shapes
 62
256
370
-1
 48
1.0
  6
ByLayer
100
AcDbCircle
 10
147.25
 20
15.75
 30
0.0
 40
4.25
  0
CIRCLE
  5
BE
100
AcDbEntity
  8
1.Shapes
 62
256
370
-1
 48
1.0
  6
ByLayer
100
AcDbCircle
 10
160.0
 20
8.5
 30
0.0
 40
4.5
  0
CIRCLE
  5
BF
100
AcDbEntity
  8
1.Shapes
 62
256
370
-1
 48
1.0
  6
ByLayer
100
AcDbCircle
 10
173.75
 20
16.25
 30
0.0
 40
4.75
  0
CIRCLE
  5
C0
100
AcDbEntity
  8
1.Shapes
 62
256
370
-1
 48
1.0
  6
ByLayer
100
AcDbCircle
 10
133.0
 20
7.9999999999999964
 30
0.0
 40
4.0
  0
DIMENSION
  5
C1
100
AcDbEntity
  8
2.Dimensions
 62
256
370
-1
 48
1.0
  6
ByLayer
100
AcDbDimension
 10
130.1715728752538155
 20
34.8284271247461348
 30
0.0
 11
134.3258252147248015
 21
33.3258252147245884
 31
0.0
 70
3
 71
8
 72
2
 74
0
 75
0
 41
1.0
 42
0.0
  1

  3
Standard
100
AcDbDiametricDimension
 15
135.8284271247461845
 25
29.1715728752535455
 35
0.0
 40
0.0
1001
ACAD
1000
DSTYLE
1002
{
1070
144
1040
1.0
1070
40
1040
1.0
1002
}
  0
CIRCLE
  5
C2
100
AcDbEntity
  8
1.Shapes
 62
256
370
-1
 48
1.0
  6
ByLayer
100
AcDbCircle
 10
9.0
 20
31.0
 30
0.0
 40
1.5
  0
CIRCLE
  5
C3
100
AcDbEntity
  8
1.Shapes
 62
256
370
-1
 48
1.0
  6
ByLayer
100
AcDbCircle
 10
9.0
 20
15.0
 30
0.0
 40
1.5
  0
CIRCLE
  5
C4
100
AcDbEntity
  8
1.Shapes
 62
256
370
-1
 48
1.0
  6
ByLayer
100
AcDbCircle
 10
27.5
 20
31.0
 30
0.0
 40
1.5
  0
CIRCLE
  5
C5
100
AcDbEntity
  8
1.Shapes
 62
256
370
-1
 48
1.0
  6
ByLayer
100
AcDbCircle
 10
27.5
 20
15.0
 30
0.0
 40
1.5
  0
CIRCLE
  5
C6
100
AcDbEntity
  8
1.Shapes
 62
256
370
-1
 48
1.0
  6
ByLayer
100
AcDbCircle
 10
27.5
 20
25.0
 30
0.0
 40
1.5
  0
CIRCLE
  5
C7
100
AcDbEntity
  8
1.Shapes
 62
256
370
-1
 48
1.0
  6
ByLayer
100
AcDbCircle
 10
27.5
 20
9.0
 30
0.0
 40
1.5
  0
CIRCLE
  5
C8
100
AcDbEntity
  8
1.Shapes
 62
256
370
-1
 48
1.0
  6
ByLayer
100
AcDbCircle
 10
9.0
 20
25.0
 30
0.0
 40
1.5
  0
CIRCLE
  5
C9
100
AcDbEntity
  8
1.Shapes
 62
256
370
-1
 48
1.0
  6
ByLayer
100
AcDbCircle
 10
9.0
 20
9.0
 30
0.0
 40
1.5
  0
LINE
  5
CA
100
AcDbEntity
  8
4.Center marks
 62
256
370
-1
 48
1.0
  6
ByLayer
100
AcDbLine
 10
7.5
 20
31.0
 30
0.0
 11
10.5
 21
31.0
 31
0.0
  0
LINE
  5
CB
100
AcDbEntity
  8
4.Center marks
 62
256
370
-1
 48
1.0
  6
ByLayer
100
AcDbLine
 10
7.5
 20
15.0
 30
0.0
 11
10.5
 21
15.0
 31
0.0
  0
LINE
  5
CC
100
AcDbEntity
  8
4.Center marks
 62
256
370
-1
 48
1.0
  6
ByLayer
100
AcDbLine
 10
9.0
 20
29.5
 30
0.0
 11
9.0
 21
32.5
 31
0.0
  0
LINE
  5
CD
100
AcDbEntity
  8
4.Center marks
 62
256
370
-1
 48
1.0
  6
ByLayer
100
AcDbLine
 10
9.0
 20
13.5
 30
0.0
 11
9.0
 21
16.5
 31
0.0
  0
LINE
  5
CE
100
AcDbEntity
  8
4.Center marks
 62
256
370
-1
 48
1.0
  6
ByLayer
100
AcDbLine
 10
26.0
 20
31.0
 30
0.0
 11
29.0
 21
31.0
 31
0.0
  0
LINE
  5
CF
100
AcDbEntity
  8
4.Center marks
 62
256
370
-1
 48
1.0
  6
ByLayer
100
AcDbLine
 10
26.0
 20
15.0
 30
0.0
 11
29.0
 21
15.0
 31
0.0
  0
LINE
  5
D0
100
AcDbEntity
  8
4.Center marks
 62
256
370
-1
 48
1.0
  6
ByLayer
100
AcDbLine
 10
27.5
 20
29.5
 30
0.0
 11
27.5
 21
32.5
 31
0.0
  0
LINE
  5
D1
100
AcDbEntity
  8
4.Center marks
 62
256
370
-1
 48
1.0
  6
ByLayer
100
AcDbLine
 10
27.5
 20
13.5
 30
0.0
 11
27.5
 21
16.5
 31
0.0
  0
LINE
  5
D2
100
AcDbEntity
  8
4.Center marks
 62
256
370
-1
 48
1.0
  6
ByLayer
100
AcDbLine
 10
26.0
 20
25.0
 30
0.0
 11
29.0
 21
25.0
 31
0.0
  0
LINE
  5
D3
100
AcDbEntity
  8
4.Center marks
 62
256
370
-1
 48
1.0
  6
ByLayer
100
AcDbLine
 10
26.0
 20
9.0
 30
0.0
 11
29.0
 21
9.0
 31
0.0
  0
LINE
  5
D4
100
AcDbEntity
  8
4.Center marks
 62
256
370
-1
 48
1.0
  6
ByLayer
100
AcDbLine
 10
27.5
 20
23.5
 30
0.0
 11
27.5
 21
26.5
 31
0.0
  0
LINE
  5
D5
100
AcDbEntity
  8
4.Center marks
 62
256
370
-1
 48
1.0
  6
ByLayer
100
AcDbLine
 10
27.5
 20
7.5
 30
0.0
 11
27.5
 21
10.5
 31
0.0
  0
LINE
  5
D6
100
AcDbEntity
  8
4.Center marks
 62
256
370
-1
 48
1.0
  6
ByLayer
100
AcDbLine
 10
7.5
 20
25.0
 30
0.0
 11
10.5
 21
25.0
 31
0.0
  0
LINE
  5
D7
100
AcDbEntity
  8
4.Center marks
 62
256
370
-1
 48
1.0
  6
ByLayer
100
AcDbLine
 10
7.5
 20
9.0
 30
0.0
 11
10.5
 21
9.0
 31
0.0
  0
LINE
  5
D8
100
AcDbEntity
  8
4.Center marks
 62
256
370
-1
 48
1.0
  6
ByLayer
100
AcDbLine
 10
9.0
 20
23.5
 30
0.0
 11
9.0
 21
26.5
 31
0.0
  0
LINE
  5
D9
100
AcDbEntity
  8
4.Center marks
 62
256
370
-1
 48
1.0
  6
ByLayer
100
AcDbLine
 10
9.0
 20
7.5
 30
0.0
 11
9.0
 21
10.5
 31
0.0
  0
LINE
  5
DA
100
AcDbEntity
  8
4.Center marks
 62
256
370
-1
 48
1.0
  6
ByLayer
100
AcDbLine
 10
30.25
 20
28.0
 30
0.0
 11
32.25
 21
28.0
 31
0.0
  0
LINE
  5
DB
100
AcDbEntity
  8
4.Center marks
 62
256
370
-1
 48
1.0
  6
ByLayer
100
AcDbLine
 10
30.25
 20
12.0
 30
0.0
 11
32.25
 21
12.0
 31
0.0
  0
LINE
  5
DC
100
AcDbEntity
  8
4.Center marks
 62
256
370
-1
 48
1.0
  6
ByLayer
100
AcDbLine
 10
31.25
 20
27.0
 30
0.0
 11
31.25
 21
29.0
 31
0.0
  0
LINE
  5
DD
100
AcDbEntity
  8
4.Center marks
 62
256
370
-1
 48
1.0
  6
ByLayer
100
AcDbLine
 10
31.25
 20
11.0
 30
0.0
 11
31.25
 21
13.0
 31
0.0
  0
LINE
  5
DE
100
AcDbEntity
  8
4.Center marks
 62
256
370
-1
 48
1.0
  6
ByLayer
100
AcDbLine
 10
4.25
 20
28.0
 30
0.0
 11
6.25
 21
28.0
 31
0.0
  0
LINE
  5
DF
100
AcDbEntity
  8
4.Center marks
 62
256
370
-1
 48
1.0
  6
ByLayer
100
AcDbLine
 10
4.25
 20
12.0
 30
0.0
 11
6.25
 21
12.0
 31
0.0
  0
LINE
  5
E0
100
AcDbEntity
  8
4.Center marks
 62
256
370
-1
 48
1.0
  6
ByLayer
100
AcDbLine
 10
5.25
 20
27.0
 30
0.0
 11
5.25
 21
29.0
 31
0.0
  0
LINE
  5
E1
100
AcDbEntity
  8
4.Center marks
 62
256
370
-1
 48
1.0
  6
ByLayer
100
AcDbLine
 10
5.25
 20
11.0
 30
0.0
 11
5.25
 21
13.0
 31
0.0
  0
CIRCLE
  5
E2
100
AcDbEntity
  8
1.Shapes
 62
256
370
-1
 48
1.0
  6
ByLayer
100
AcDbCircle
 10
40.25
 20
30.0
 30
0.0
 40
1.5
  0
CIRCLE
  5
E3
100
AcDbEntity
  8
1.Shapes
 62
256
370
-1
 48
1.0
  6
ByLayer
100
AcDbCircle
 10
40.25
 20
13.9999999999999982
 30
0.0
 40
1.5
  0
CIRCLE
  5
E4
100
AcDbEntity
  8
1.Shapes
 62
256
370
-1
 48
1.0
  6
ByLayer
100
AcDbCircle
 10
49.75
 20
30.0
 30
0.0
 40
1.5
  0
CIRCLE
  5
E5
100
AcDbEntity
  8
1.Shapes
 62
256
370
-1
 48
1.0
  6
ByLayer
100
AcDbCircle
 10
49.75
 20
13.9999999999999982
 30
0.0
 40
1.5
  0
CIRCLE
  5
E6
100
AcDbEntity
  8
1.Shapes
 62
256
370
-1
 48
1.0
  6
ByLayer
100
AcDbCircle
 10
40.25
 20
25.4999999999999929
 30
0.0
 40
1.5
  0
CIRCLE
  5
E7
100
AcDbEntity
  8
1.Shapes
 62
256
370
-1
 48
1.0
  6
ByLayer
100
AcDbCircle
 10
40.25
 20
9.4999999999999911
 30
0.0
 40
1.5
  0
CIRCLE
  5
E8
100
AcDbEntity
  8
1.Shapes
 62
256
370
-1
 48
1.0
  6
ByLayer
100
AcDbCircle
 10
49.75
 20
25.5
 30
0.0
 40
1.5
  0
CIRCLE
  5
E9
100
AcDbEntity
  8
1.Shapes
 62
256
370
-1
 48
1.0
  6
ByLayer
100
AcDbCircle
 10
49.75
 20
9.4999999999999982
 30
0.0
 40
1.5
  0
LINE
  5
EA
100
AcDbEntity
  8
4.Center marks
 62
256
370
-1
 48
1.0
  6
ByLayer
100
AcDbLine
 10
38.75
 20
30.0
 30
0.0
 11
41.75
 21
30.0
 31
0.0
  0
LINE
  5
EB
100
AcDbEntity
  8
4.Center marks
 62
256
370
-1
 48
1.0
  6
ByLayer
100
AcDbLine
 10
38.75
 20
13.9999999999999982
 30
0.0
 11
41.75
 21
13.9999999999999982
 31
0.0
  0
LINE
  5
EC
100
AcDbEntity
  8
4.Center marks
 62
256
370
-1
 48
1.0
  6
ByLayer
100
AcDbLine
 10
40.25
 20
28.5
 30
0.0
 11
40.25
 21
31.5
 31
0.0
  0
LINE
  5
ED
100
AcDbEntity
  8
4.Center marks
 62
256
370
-1
 48
1.0
  6
ByLayer
100
AcDbLine
 10
40.25
 20
12.4999999999999982
 30
0.0
 11
40.25
 21
15.4999999999999982
 31
0.0
  0
LINE
  5
EE
100
AcDbEntity
  8
4.Center marks
 62
256
370
-1
 48
1.0
  6
ByLayer
100
AcDbLine
 10
48.25
 20
30.0
 30
0.0
 11
51.25
 21
30.0
 31
0.0
  0
LINE
  5
EF
100
AcDbEntity
  8
4.Center marks
 62
256
370
-1
 48
1.0
  6
ByLayer
100
AcDbLine
 10
48.25
 20
13.9999999999999982
 30
0.0
 11
51.25
 21
13.9999999999999982
 31
0.0
  0
LINE
  5
F0
100
AcDbEntity
  8
4.Center marks
 62
256
370
-1
 48
1.0
  6
ByLayer
100
AcDbLine
 10
49.75
 20
28.5
 30
0.0
 11
49.75
 21
31.5
 31
0.0
  0
LINE
  5
F1
100
AcDbEntity
  8
4.Center marks
 62
256
370
-1
 48
1.0
  6
ByLayer
100
AcDbLine
 10
49.75
 20
12.4999999999999982
 30
0.0
 11
49.75
 21
15.4999999999999982
 31
0.0
  0
LINE
  5
F2
100
AcDbEntity
  8
4.Center marks
 62
256
370
-1
 48
1.0
  6
ByLayer
100
AcDbLine
 10
48.25
 20
25.5
 30
0.0
 11
51.25
 21
25.5
 31
0.0
  0
LINE
  5
F3
100
AcDbEntity
  8
4.Center marks
 62
256
370
-1
 48
1.0
  6
ByLayer
100
AcDbLine
 10
48.25
 20
9.4999999999999982
 30
0.0
 11
51.25
 21
9.4999999999999982
 31
0.0
  0
LINE
  5
F4
100
AcDbEntity
  8
4.Center marks
 62
256
370
-1
 48
1.0
  6
ByLayer
100
AcDbLine
 10
49.75
 20
24.0
 30
0.0
 11
49.75
 21
27.0
 31
0.0
  0
LINE
  5
F5
100
AcDbEntity
  8
4.Center marks
 62
256
370
-1
 48
1.0
  6
ByLayer
100
AcDbLine
 10
49.75
 20
7.9999999999999982
 30
0.0
 11
49.75
 21
10.9999999999999982
 31
0.0
  0
LINE
  5
F6
100
AcDbEntity
  8
4.Center marks
 62
256
370
-1
 48
1.0
  6
ByLayer
100
AcDbLine
 10
38.75
 20
25.4999999999999929
 30
0.0
 11
41.75
 21
25.4999999999999929
 31
0.0
  0
LINE
  5
F7
100
AcDbEntity
  8
4.Center marks
 62
256
370
-1
 48
1.0
  6
ByLayer
100
AcDbLine
 10
38.75
 20
9.4999999999999911
 30
0.0
 11
41.75
 21
9.4999999999999911
 31
0.0
  0
LINE
  5
F8
100
AcDbEntity
  8
4.Center marks
 62
256
370
-1
 48
1.0
  6
ByLayer
100
AcDbLine
 10
40.25
 20
23.9999999999999929
 30
0.0
 11
40.25
 21
26.9999999999999929
 31
0.0
  0
LINE
  5
F9
100
AcDbEntity
  8
4.Center marks
 62
256
370
-1
 48
1.0
  6
ByLayer
100
AcDbLine
 10
40.25
 20
7.9999999999999911
 30
0.0
 11
40.25
 21
10.9999999999999911
 31
0.0
  0
LINE
  5
FA
100
AcDbEntity
  8
4.Center marks
 62
256
370
-1
 48
1.0
  6
ByLayer
100
AcDbLine
 10
179.2927664129268237
 20
8.9218187100689832
 30
0.0
 11
181.7927664129268237
 21
8.9218187100689832
 31
0.0
  0
LINE
  5
FB
100
AcDbEntity
  8
4.Center marks
 62
256
370
-1
 48
1.0
  6
ByLayer
100
AcDbLine
 10
180.5427664129268237
 20
7.6718187100689832
 30
0.0
 11
180.5427664129268237
 21
10.1718187100689832
 31
0.0
  0
LINE
  5
FC
100
AcDbEntity
  8
4.Center marks
 62
256
370
-1
 48
1.0
  6
ByLayer
100
AcDbLine
 10
179.2927664129268237
 20
24.9218187100689832
 30
0.0
 11
181.7927664129268237
 21
24.9218187100689832
 31
0.0
  0
LINE
  5
FD
100
AcDbEntity
  8
4.Center marks
 62
256
370
-1
 48
1.0
  6
ByLayer
100
AcDbLine
 10
180.5427664129268237
 20
23.6718187100689832
 30
0.0
 11
180.5427664129268237
 21
26.1718187100689832
 31
0.0
  0
LINE
  5
FE
100
AcDbEntity
  8
4.Center marks
 62
256
370
-1
 48
1.0
  6
ByLayer
100
AcDbLine
 10
184.0
 20
28.0
 30
0.0
 11
194.0
 21
28.0
 31
0.0
  0
LINE
  5
FF
100
AcDbEntity
  8
4.Center marks
 62
256
370
-1
 48
1.0
  6
ByLayer
100
AcDbLine
 10
189.0
 20
23.0
 30
0.0
 11
189.0
 21
33.0
 31
0.0
  0
LINE
  5
100
100
AcDbEntity
  8
4.Center marks
 62
256
370
-1
 48
1.0
  6
ByLayer
100
AcDbLine
 10
184.0
 20
12.0
 30
0.0
 11
194.0
 21
12.0
 31
0.0
  0
LINE
  5
101
100
AcDbEntity
  8
4.Center marks
 62
256
370
-1
 48
1.0
  6
ByLayer
100
AcDbLine
 10
189.0
 20
7.0
 30
0.0
 11
189.0
 21
17.0
 31
0.0
  0
LINE
  5
102
100
AcDbEntity
  8
4.Center marks
 62
256
370
-1
 48
1.0
  6
ByLayer
100
AcDbLine
 10
97.0
 20
20.0
 30
0.0
 11
104.0
 21
20.0
 31
0.0
  0
LINE
  5
103
100
AcDbEntity
  8
4.Center marks
 62
256
370
-1
 48
1.0
  6
ByLayer
100
AcDbLine
 10
100.5
 20
16.5
 30
0.0
 11
100.5
 21
23.5
 31
0.0
  0
LINE
  5
104
100
AcDbEntity
  8
4.Center marks
 62
256
370
-1
 48
1.0
  6
ByLayer
100
AcDbLine
 10
97.0
 20
32.0
 30
0.0
 11
104.0
 21
32.0
 31
0.0
  0
LINE
  5
105
100
AcDbEntity
  8
4.Center marks
 62
256
370
-1
 48
1.0
  6
ByLayer
100
AcDbLine
 10
100.5
 20
28.5
 30
0.0
 11
100.5
 21
35.5
 31
0.0
  0
LINE
  5
106
100
AcDbEntity
  8
4.Center marks
 62
256
370
-1
 48
1.0
  6
ByLayer
100
AcDbLine
 10
97.0
 20
8.0
 30
0.0
 11
104.0
 21
8.0
 31
0.0
  0
LINE
  5
107
100
AcDbEntity
  8
4.Center marks
 62
256
370
-1
 48
1.0
  6
ByLayer
100
AcDbLine
 10
100.5
 20
4.5
 30
0.0
 11
100.5
 21
11.5
 31
0.0
  0
LINE
  5
108
100
AcDbEntity
  8
4.Center marks
 62
256
370
-1
 48
1.0
  6
ByLayer
100
AcDbLine
 10
107.25
 20
8.0
 30
0.0
 11
109.75
 21
8.0
 31
0.0
  0
LINE
  5
109
100
AcDbEntity
  8
4.Center marks
 62
256
370
-1
 48
1.0
  6
ByLayer
100
AcDbLine
 10
108.5
 20
6.75
 30
0.0
 11
108.5
 21
9.25
 31
0.0
  0
LINE
  5
10A
100
AcDbEntity
  8
4.Center marks
 62
256
370
-1
 48
1.0
  6
ByLayer
100
AcDbLine
 10
107.25
 20
20.0
 30
0.0
 11
109.75
 21
20.0
 31
0.0
  0
LINE
  5
10B
100
AcDbEntity
  8
4.Center marks
 62
256
370
-1
 48
1.0
  6
ByLayer
100
AcDbLine
 10
108.5
 20
18.75
 30
0.0
 11
108.5
 21
21.25
 31
0.0
  0
LINE
  5
10C
100
AcDbEntity
  8
4.Center marks
 62
256
370
-1
 48
1.0
  6
ByLayer
100
AcDbLine
 10
107.25
 20
32.0
 30
0.0
 11
109.75
 21
32.0
 31
0.0
  0
LINE
  5
10D
100
AcDbEntity
  8
4.Center marks
 62
256
370
-1
 48
1.0
  6
ByLayer
100
AcDbLine
 10
108.5
 20
30.75
 30
0.0
 11
108.5
 21
33.25
 31
0.0
  0
LINE
  5
10E
100
AcDbEntity
  8
4.Center marks
 62
256
370
-1
 48
1.0
  6
ByLayer
100
AcDbLine
 10
129.0
 20
32.0
 30
0.0
 11
137.0
 21
32.0
 31
0.0
  0
LINE
  5
10F
100
AcDbEntity
  8
4.Center marks
 62
256
370
-1
 48
1.0
  6
ByLayer
100
AcDbLine
 10
133.0
 20
27.9999999999999964
 30
0.0
 11
133.0
 21
36.0
 31
0.0
  0
LINE
  5
110
100
AcDbEntity
  8
4.Center marks
 62
256
370
-1
 48
1.0
  6
ByLayer
100
AcDbLine
 10
129.0
 20
19.9999999999999964
 30
0.0
 11
137.0
 21
19.9999999999999964
 31
0.0
  0
LINE
  5
111
100
AcDbEntity
  8
4.Center marks
 62
256
370
-1
 48
1.0
  6
ByLayer
100
AcDbLine
 10
133.0
 20
15.9999999999999964
 30
0.0
 11
133.0
 21
23.9999999999999964
 31
0.0
  0
LINE
  5
112
100
AcDbEntity
  8
4.Center marks
 62
256
370
-1
 48
1.0
  6
ByLayer
100
AcDbLine
 10
129.0
 20
7.9999999999999964
 30
0.0
 11
137.0
 21
7.9999999999999964
 31
0.0
  0
LINE
  5
113
100
AcDbEntity
  8
4.Center marks
 62
256
370
-1
 48
1.0
  6
ByLayer
100
AcDbLine
 10
133.0
 20
3.9999999999999964
 30
0.0
 11
133.0
 21
11.9999999999999964
 31
0.0
  0
DIMENSION
  5
114
100
AcDbEntity
  8
2.Dimensions
 62
256
370
-1
 48
1.0
  6
ByLayer
100
AcDbDimension
 10
185.746919453180368
 20
31.7970339682314886
 30
0.0
 11
191.3162328482496264
 21
30.0348179839990124
 31
0.0
 70
131
 71
8
 72
2
 74
0
 75
0
 41
1.0
 42
0.0
  1

  3
Standard
100
AcDbDiametricDimension
 15
192.253080546819632
 25
24.2029660317687139
 35
0.0
 40
0.0
1001
ACAD
1000
DSTYLE
1002
{
1070
279
1070
2
1070
144
1040
1.0
1070
40
1040
1.0
1002
}
  0
DIMENSION
  5
115
100
AcDbEntity
  8
2.Dimensions
 62
256
370
-1
 48
1.0
  6
ByLayer
100
AcDbDimension
 10
191.5530570816654574
 20
4.9855333175455181
 30
0.0
 11
186.6831525193929338
 21
5.2083663365536461
 31
0.0
 70
1
 71
8
 72
2
 74
0
 75
0
 41
1.0
 42
0.0
  1

  3
Standard
100
AcDbAlignedDimension
 13
189.0
 23
11.9999999999997176
 33
0.0
 14
180.5427664129268237
 24
8.9218187100690383
 34
0.0
1001
ACAD
1000
DSTYLE
1002
{
1070
144
1040
1.0
1070
40
1040
1.0
1002
}
  0
DIMENSION
  5
116
100
AcDbEntity
  8
2.Dimensions
 62
256
370
-1
 48
1.0
  6
ByLayer
100
AcDbDimension
 10
10.5
 20
31.0
 30
0.0
 11
3.75
 21
32.8749999999999929
 31
0.0
 70
131
 71
8
 72
2
 74
0
 75
0
 41
1.0
 42
0.0
  1

  3
Standard
100
AcDbDiametricDimension
 15
7.5
 25
31.0000000000000036
 35
0.0
 40
0.0
1001
ACAD
1000
DSTYLE
1002
{
1070
279
1070
2
1070
144
1040
1.0
1070
40
1040
1.0
1002
}
  0
DIMENSION
  5
117
100
AcDbEntity
  8
2.Dimensions
 62
256
370
-1
 48
1.0
  6
ByLayer
100
AcDbDimension
 10
38.25
 20
2.0
 30
0.0
 11
45.0000000000000071
 21
3.875
 31
0.0
 70
0
 71
8
 72
2
 74
0
 75
0
 41
1.0
 42
0.0
  1

  3
Standard
100
AcDbAlignedDimension
 13
38.25
 23
7.5000000000000018
 33
0.0
 14
51.7500000000000142
 24
7.4999999999999956
 34
0.0
 50
0.0
100
AcDbRotatedDimension
1001
ACAD
1000
DSTYLE
1002
{
1070
144
1040
1.0
1070
40
1040
1.0
1002
}
  0
DIMENSION
  5
118
100
AcDbEntity
  8
2.Dimensions
 62
256
370
-1
 48
1.0
  6
ByLayer
100
AcDbDimension
 10
56.5
 20
15.9999999999999947
 30
0.0
 11
54.625
 21
11.7499999999999947
 31
0.0
 70
0
 71
8
 72
2
 74
0
 75
0
 41
1.0
 42
0.0
  1

  3
Standard
100
AcDbAlignedDimension
 13
51.75
 23
15.9999999999999947
 33
0.0
 14
51.7500000000000142
 24
7.4999999999999938
 34
0.0
 50
90.0
100
AcDbRotatedDimension
1001
ACAD
1000
DSTYLE
1002
{
1070
144
1040
1.0
1070
40
1040
1.0
1002
}
  0
DIMENSION
  5
119
100
AcDbEntity
  8
2.Dimensions
 62
256
370
-1
 48
1.0
  6
ByLayer
100
AcDbDimension
 10
5.25
 20
11.0
 30
0.0
 11
3.3749999999999996
 21
7.0
 31
0.0
 70
131
 71
8
 72
2
 74
0
 75
0
 41
1.0
 42
0.0
  1

  3
Standard
100
AcDbDiametricDimension
 15
5.25
 25
13.0
 35
0.0
 40
0.0
1001
ACAD
1000
DSTYLE
1002
{
1070
279
1070
2
1070
144
1040
1.0
1070
40
1040
1.0
1002
}
  0
DIMENSION
  5
11A
100
AcDbEntity
  8
2.Dimensions
 62
256
370
-1
 48
1.0
  6
ByLayer
100
AcDbDimension
 10
36.0
 20
17.0
 30
0.0
 11
34.125
 21
12.0
 31
0.0
 70
0
 71
8
 72
2
 74
0
 75
0
 41
1.0
 42
0.0
  1

  3
Standard
100
AcDbAlignedDimension
 13
29.5
 23
17.0
 33
0.0
 14
29.5
 24
7.0
 34
0.0
 50
90.0
100
AcDbRotatedDimension
1001
ACAD
1000
DSTYLE
1002
{
1070
144
1040
1.0
1070
40
1040
1.0
1002
}
  0
DIMENSION
  5
11B
100
AcDbEntity
  8
2.Dimensions
 62
256
370
-1
 48
1.0
  6
ByLayer
100
AcDbDimension
 10
59.8054563517369928
 20
33.9445436482630001
 30
0.0
 11
67.75
 21
28.9999999999999964
 31
0.0
 70
131
 71
8
 72
2
 74
0
 75
0
 41
1.0
 42
0.0
  1

  3
Standard
100
AcDbDiametricDimension
 15
63.6945436482630072
 25
30.0554563517369822
 35
0.0
 40
0.0
1001
ACAD
1000
DSTYLE
1002
{
1070
279
1070
2
1070
144
1040
1.0
1070
40
1040
1.0
1002
}
  0
DIMENSION
  5
11C
100
AcDbEntity
  8
2.Dimensions
 62
256
370
-1
 48
1.0
  6
ByLayer
100
AcDbDimension
 10
84.9519029611437162
 20
34.2980970388562909
 30
0.0
 11
93.25
 21
30.0000000000000533
 31
0.0
 70
131
 71
8
 72
2
 74
0
 75
0
 41
1.0
 42
0.0
  1

  3
Standard
100
AcDbDiametricDimension
 15
89.5480970388562838
 25
29.7019029611437482
 35
0.0
 40
0.0
1001
ACAD
1000
DSTYLE
1002
{
1070
279
1070
2
1070
144
1040
1.0
1070
40
1040
1.0
1002
}
  0
LINE
  5
11D
100
AcDbEntity
  8
4.Center marks
 62
256
370
-1
 48
1.0
  6
ByLayer
100
AcDbLine
 10
59.0
 20
32.0
 30
0.0
 11
64.5
 21
32.0
 31
0.0
  0
LINE
  5
11E
100
AcDbEntity
  8
4.Center marks
 62
256
370
-1
 48
1.0
  6
ByLayer
100
AcDbLine
 10
61.75
 20
29.25
 30
0.0
 11
61.75
 21
34.75
 31
0.0
  0
LINE
  5
11F
100
AcDbEntity
  8
4.Center marks
 62
256
370
-1
 48
1.0
  6
ByLayer
100
AcDbLine
 10
59.0
 20
20.0
 30
0.0
 11
64.5
 21
20.0
 31
0.0
  0
LINE
  5
120
100
AcDbEntity
  8
4.Center marks
 62
256
370
-1
 48
1.0
  6
ByLayer
100
AcDbLine
 10
61.75
 20
17.25
 30
0.0
 11
61.75
 21
22.75
 31
0.0
  0
LINE
  5
121
100
AcDbEntity
  8
4.Center marks
 62
256
370
-1
 48
1.0
  6
ByLayer
100
AcDbLine
 10
59.0
 20
8.0
 30
0.0
 11
64.5
 21
8.0
 31
0.0
  0
LINE
  5
122
100
AcDbEntity
  8
4.Center marks
 62
256
370
-1
 48
1.0
  6
ByLayer
100
AcDbLine
 10
61.75
 20
5.25
 30
0.0
 11
61.75
 21
10.75
 31
0.0
  0
LINE
  5
123
100
AcDbEntity
  8
4.Center marks
 62
256
370
-1
 48
1.0
  6
ByLayer
100
AcDbLine
 10
84.0
 20
32.0
 30
0.0
 11
90.5
 21
32.0
 31
0.0
  0
LINE
  5
124
100
AcDbEntity
  8
4.Center marks
 62
256
370
-1
 48
1.0
  6
ByLayer
100
AcDbLine
 10
87.25
 20
28.75
 30
0.0
 11
87.25
 21
35.25
 31
0.0
  0
LINE
  5
125
100
AcDbEntity
  8
4.Center marks
 62
256
370
-1
 48
1.0
  6
ByLayer
100
AcDbLine
 10
84.0
 20
20.0
 30
0.0
 11
90.5
 21
20.0
 31
0.0
  0
LINE
  5
126
100
AcDbEntity
  8
4.Center marks
 62
256
370
-1
 48
1.0
  6
ByLayer
100
AcDbLine
 10
87.25
 20
16.75
 30
0.0
 11
87.25
 21
23.25
 31
0.0
  0
LINE
  5
127
100
AcDbEntity
  8
4.Center marks
 62
256
370
-1
 48
1.0
  6
ByLayer
100
AcDbLine
 10
84.0
 20
8.0
 30
0.0
 11
90.5
 21
8.0
 31
0.0
  0
LINE
  5
128
100
AcDbEntity
  8
4.Center marks
 62
256
370
-1
 48
1.0
  6
ByLayer
100
AcDbLine
 10
87.25
 20
4.75
 30
0.0
 11
87.25
 21
11.25
 31
0.0
  0
DIMENSION
  5
129
100
AcDbEntity
  8
2.Dimensions
 62
256
370
-1
 48
1.0
  6
ByLayer
100
AcDbDimension
 10
115.0983495705504254
 20
34.651650429449397
 30
0.0
 11
123.7499999999999432
 21
29.9999999999998401
 31
0.0
 70
131
 71
8
 72
2
 74
0
 75
0
 41
1.0
 42
0.0
  1

  3
Standard
100
AcDbDiametricDimension
 15
120.4016504294495746
 25
29.3483495705505248
 35
0.0
 40
0.0
1001
ACAD
1000
DSTYLE
1002
{
1070
279
1070
2
1070
144
1040
1.0
1070
40
1040
1.0
1002
}
  0
LINE
  5
12A
100
AcDbEntity
  8
4.Center marks
 62
256
370
-1
 48
1.0
  6
ByLayer
100
AcDbLine
 10
114.0
 20
32.0
 30
0.0
 11
121.5
 21
32.0
 31
0.0
  0
LINE
  5
12B
100
AcDbEntity
  8
4.Center marks
 62
256
370
-1
 48
1.0
  6
ByLayer
100
AcDbLine
 10
117.75
 20
28.25
 30
0.0
 11
117.75
 21
35.75
 31
0.0
  0
LINE
  5
12C
100
AcDbEntity
  8
4.Center marks
 62
256
370
-1
 48
1.0
  6
ByLayer
100
AcDbLine
 10
114.0
 20
20.0
 30
0.0
 11
121.5
 21
20.0
 31
0.0
  0
LINE
  5
12D
100
AcDbEntity
  8
4.Center marks
 62
256
370
-1
 48
1.0
  6
ByLayer
100
AcDbLine
 10
117.75
 20
16.25
 30
0.0
 11
117.75
 21
23.75
 31
0.0
  0
LINE
  5
12E
100
AcDbEntity
  8
4.Center marks
 62
256
370
-1
 48
1.0
  6
ByLayer
100
AcDbLine
 10
114.0
 20
8.0
 30
0.0
 11
121.5
 21
8.0
 31
0.0
  0
LINE
  5
12F
100
AcDbEntity
  8
4.Center marks
 62
256
370
-1
 48
1.0
  6
ByLayer
100
AcDbLine
 10
117.75
 20
4.25
 30
0.0
 11
117.75
 21
11.75
 31
0.0
  0
DIMENSION
  5
130
100
AcDbEntity
  8
2.Dimensions
 62
256
370
-1
 48
1.0
  6
ByLayer
100
AcDbDimension
 10
150.1771852131374487
 20
28.9187524072237423
 30
0.0
 11
148.6093739379895169
 21
33.2914052410900467
 31
0.0
 70
3
 71
8
 72
2
 74
0
 75
0
 41
1.0
 42
0.0
  1

  3
Standard
100
AcDbDiametricDimension
 15
144.3228147868625513
 25
35.0812475927762577
 35
0.0
 40
0.0
1001
ACAD
1000
DSTYLE
1002
{
1070
144
1040
1.0
1070
40
1040
1.0
1002
}
  0
DIMENSION
  5
131
100
AcDbEntity
  8
2.Dimensions
 62
256
370
-1
 48
1.0
  6
ByLayer
100
AcDbDimension
 10
163.1819805153394611
 20
20.3180194846605318
 30
0.0
 11
161.3258252147247731
 21
24.8258252147247767
 31
0.0
 70
3
 71
8
 72
2
 74
0
 75
0
 41
1.0
 42
0.0
  1

  3
Standard
100
AcDbDiametricDimension
 15
156.8180194846605389
 25
26.6819805153394682
 35
0.0
 40
0.0
1001
ACAD
1000
DSTYLE
1002
{
1070
144
1040
1.0
1070
40
1040
1.0
1002
}
  0
DIMENSION
  5
132
100
AcDbEntity
  8
2.Dimensions
 62
256
370
-1
 48
1.0
  6
ByLayer
100
AcDbDimension
 10
177.1896551724137794
 20
28.724137931034484
 30
0.0
 11
175.0431034482758719
 21
33.3577586206896513
 31
0.0
 70
3
 71
8
 72
2
 74
0
 75
0
 41
1.0
 42
0.0
  1

  3
Standard
100
AcDbDiametricDimension
 15
170.3103448275862206
 25
35.275862068965516
 35
0.0
 40
0.0
1001
ACAD
1000
DSTYLE
1002
{
1070
144
1040
1.0
1070
40
1040
1.0
1002
}
  0
LINE
  5
133
100
AcDbEntity
  8
4.Center marks
 62
256
370
-1
 48
1.0
  6
ByLayer
100
AcDbLine
 10
143.0
 20
32.0
 30
0.0
 11
151.5
 21
32.0
 31
0.0
  0
LINE
  5
134
100
AcDbEntity
  8
4.Center marks
 62
256
370
-1
 48
1.0
  6
ByLayer
100
AcDbLine
 10
147.25
 20
27.75
 30
0.0
 11
147.25
 21
36.25
 31
0.0
  0
LINE
  5
135
100
AcDbEntity
  8
4.Center marks
 62
256
370
-1
 48
1.0
  6
ByLayer
100
AcDbLine
 10
143.0
 20
15.75
 30
0.0
 11
151.5
 21
15.75
 31
0.0
  0
LINE
  5
136
100
AcDbEntity
  8
4.Center marks
 62
256
370
-1
 48
1.0
  6
ByLayer
100
AcDbLine
 10
147.25
 20
11.5
 30
0.0
 11
147.25
 21
20.0
 31
0.0
  0
LINE
  5
137
100
AcDbEntity
  8
4.Center marks
 62
256
370
-1
 48
1.0
  6
ByLayer
100
AcDbLine
 10
155.5
 20
23.5
 30
0.0
 11
164.5
 21
23.5
 31
0.0
  0
LINE
  5
138
100
AcDbEntity
  8
4.Center marks
 62
256
370
-1
 48
1.0
  6
ByLayer
100
AcDbLine
 10
160.0
 20
19.0
 30
0.0
 11
160.0
 21
28.0
 31
0.0
  0
LINE
  5
139
100
AcDbEntity
  8
4.Center marks
 62
256
370
-1
 48
1.0
  6
ByLayer
100
AcDbLine
 10
155.5
 20
8.5
 30
0.0
 11
164.5
 21
8.5
 31
0.0
  0
LINE
  5
13A
100
AcDbEntity
  8
4.Center marks
 62
256
370
-1
 48
1.0
  6
ByLayer
100
AcDbLine
 10
160.0
 20
4.0
 30
0.0
 11
160.0
 21
13.0
 31
0.0
  0
LINE
  5
13B
100
AcDbEntity
  8
4.Center marks
 62
256
370
-1
 48
1.0
  6
ByLayer
100
AcDbLine
 10
169.0
 20
16.25
 30
0.0
 11
178.5
 21
16.25
 31
0.0
  0
LINE
  5
13C
100
AcDbEntity
  8
4.Center marks
 62
256
370
-1
 48
1.0
  6
ByLayer
100
AcDbLine
 10
173.75
 20
11.5
 30
0.0
 11
173.75
 21
21.0
 31
0.0
  0
LINE
  5
13D
100
AcDbEntity
  8
4.Center marks
 62
256
370
-1
 48
1.0
  6
ByLayer
100
AcDbLine
 10
169.0
 20
32.0
 30
0.0
 11
178.5
 21
32.0
 31
0.0
  0
LINE
  5
13E
100
AcDbEntity
  8
4.Center marks
 62
256
370
-1
 48
1.0
  6
ByLayer
100
AcDbLine
 10
173.75
 20
27.25
 30
0.0
 11
173.75
 21
36.75
 31
0.0
  0
MTEXT
  5
13F
100
AcDbEntity
  8
3.Labels
 62
256
370
-1
 48
1.0
  6
ByLayer
100
AcDbMText
 10
60.0
 20
27.0
 30
0.0
 40
2.0
 41
0.0
 71
1
 72
1
  1
5,5
  7
textstyle2
 50
0.0
 73
2
 44
1.0
  0
MTEXT
  5
140
100
AcDbEntity
  8
3.Labels
 62
256
370
-1
 48
1.0
  6
ByLayer
100
AcDbMText
 10
73.0
 20
27.0
 30
0.0
 40
2.0
 41
0.0
 71
1
 72
1
  1
6
  7
textstyle3
 50
0.0
 73
2
 44
1.0
  0
MTEXT
  5
141
100
AcDbEntity
  8
3.Labels
 62
256
370
-1
 48
1.0
  6
ByLayer
100
AcDbMText
 10
86.0
 20
27.0
 30
0.0
 40
2.0
 41
0.0
 71
1
 72
1
  1
6,5
  7
textstyle4
 50
0.0
 73
2
 44
1.0
  0
MTEXT
  5
142
100
AcDbEntity
  8
3.Labels
 62
256
370
-1
 48
1.0
  6
ByLayer
100
AcDbMText
 10
100.0
 20
27.0
 30
0.0
 40
2.0
 41
0.0
 71
1
 72
1
  1
7
  7
textstyle5
 50
0.0
 73
2
 44
1.0
  0
MTEXT
  5
143
100
AcDbEntity
  8
3.Labels
 62
256
370
-1
 48
1.0
  6
ByLayer
100
AcDbMText
 10
116.0
 20
27.0
 30
0.0
 40
2.0
 41
0.0
 71
1
 72
1
  1
7,5
  7
textstyle6
 50
0.0
 73
2
 44
1.0
  0
MTEXT
  5
144
100
AcDbEntity
  8
3.Labels
 62
256
370
-1
 48
1.0
  6
ByLayer
100
AcDbMText
 10
133.0
 20
27.0
 30
0.0
 40
2.0
 41
0.0
 71
1
 72
1
  1
8
  7
textstyle7
 50
0.0
 73
2
 44
1.0
  0
MTEXT
  5
145
100
AcDbEntity
  8
3.Labels
 62
256
370
-1
 48
1.0
  6
ByLayer
100
AcDbMText
 10
146.0
 20
25.0
 30
0.0
 40
2.0
 41
0.0
 71
1
 72
1
  1
8,5
  7
textstyle8
 50
0.0
 73
2
 44
1.0
  0
MTEXT
  5
146
100
AcDbEntity
  8
3.Labels
 62
256
370
-1
 48
1.0
  6
ByLayer
100
AcDbMText
 10
159.5
 20
16.9999999999998721
 30
0.0
 40
2.0
 41
0.0
 71
1
 72
1
  1
9
  7
textstyle9
 50
0.0
 73
2
 44
1.0
  0
MTEXT
  5
147
100
AcDbEntity
  8
3.Labels
 62
256
370
-1
 48
1.0
  6
ByLayer
100
AcDbMText
 10
172.0
 20
25.0
 30
0.0
 40
2.0
 41
0.0
 71
1
 72
1
  1
9,5
  7
textstyle10
 50
0.0
 73
2
 44
1.0
  0
MTEXT
  5
148
100
AcDbEntity
  8
3.Labels
 62
256
370
-1
 48
1.0
  6
ByLayer
100
AcDbMText
 10
188.0
 20
21.0
 30
0.0
 40
2.0
 41
0.0
 71
1
 72
1
  1
10
  7
textstyle11
 50
0.0
 73
2
 44
1.0
  0
ENDSEC
  0
SECTION
  2
OBJECTS
  0
DICTIONARY
  5
C
100
AcDbDictionary
280
0
281
1
  3
ACAD_GROUP
350
D
  3
ACAD_LAYOUT
350
1A
  3
ACAD_MLINESTYLE
350
17
  3
ACAD_PLOTSETTINGS
350
19
  3
ACAD_PLOTSTYLENAME
350
E
  3
AcDbVariableDictionary
350
149
  3
QCAD_OBJECTS
350
14A
  0
DICTIONARY
  5
D
100
AcDbDictionary
280
0
281
1
  0
ACDBDICTIONARYWDFLT
  5
E
100
AcDbDictionary
281
1
  3
Normal
350
F
100
AcDbDictionaryWithDefault
340
F
  0
ACDBPLACEHOLDER
  5
F
  0
DICTIONARY
  5
17
100
AcDbDictionary
280
0
281
1
  3
Standard
350
18
  0
MLINESTYLE
  5
18
100
AcDbMlineStyle
  2
STANDARD
 70
0
  3

 62
256
 51
90.0
 52
90.0
 71
2
 49
0.5
 62
256
  6
BYLAYER
 49
-0.5
 62
256
  6
BYLAYER
  0
DICTIONARY
  5
19
100
AcDbDictionary
280
0
281
1
  0
DICTIONARY
  5
1A
100
AcDbDictionary
281
1
  3
Layout1
350
1E
  3
Layout2
350
26
  3
Model
350
22
  0
LAYOUT
  5
1E
100
AcDbPlotSettings
  1

  2
none_device
  4

  6

 40
0.0
 41
0.0
 42
0.0
 43
0.0
 44
0.0
 45
0.0
 46
0.0
 47
0.0
 48
0.0
 49
0.0
140
0.0
141
0.0
142
1.0
143
1.0
 70
688
 72
0
 73
0
 74
5
  7

 75
16
147
1.0
148
0.0
149
0.0
100
AcDbLayout
  1
Layout1
 70
1
 71
1
 10
0.0
 20
0.0
 11
420.0
 21
297.0
 12
0.0
 22
0.0
 32
0.0
 14
100000000000000000000.0
 24
100000000000000000000.0
 34
100000000000000000000.0
 15
-100000000000000000000.0
 25
-100000000000000000000.0
 35
-100000000000000000000.0
146
0.0
 13
0.0
 23
0.0
 33
0.0
 16
1.0
 26
0.0
 36
0.0
 17
0.0
 27
1.0
 37
0.0
 76
0
330
1B
  0
LAYOUT
  5
22
100
AcDbPlotSettings
  1

  2
none_device
  4

  6

 40
0.0
 41
0.0
 42
0.0
 43
0.0
 44
0.0
 45
0.0
 46
0.0
 47
0.0
 48
0.0
 49
0.0
140
0.0
141
0.0
142
1.0
143
1.0
 70
1712
 72
0
 73
0
 74
0
  7

 75
0
147
1.0
148
0.0
149
0.0
100
AcDbLayout
  1
Model
 70
1
 71
0
 10
0.0
 20
0.0
 11
12.0
 21
9.0
 12
0.0
 22
0.0
 32
0.0
 14
0.0
 24
0.0
 34
0.0
 15
0.0
 25
0.0
 35
0.0
146
0.0
 13
0.0
 23
0.0
 33
0.0
 16
1.0
 26
0.0
 36
0.0
 17
0.0
 27
1.0
 37
0.0
 76
0
330
1F
  0
LAYOUT
  5
26
100
AcDbPlotSettings
  1

  2
none_device
  4

  6

 40
0.0
 41
0.0
 42
0.0
 43
0.0
 44
0.0
 45
0.0
 46
0.0
 47
0.0
 48
0.0
 49
0.0
140
0.0
141
0.0
142
1.0
143
1.0
 70
688
 72
0
 73
0
 74
5
  7

 75
16
147
1.0
148
0.0
149
0.0
100
AcDbLayout
  1
Layout2
 70
1
 71
2
 10
0.0
 20
0.0
 11
12.0
 21
9.0
 12
0.0
 22
0.0
 32
0.0
 14
0.0
 24
0.0
 34
0.0
 15
0.0
 25
0.0
 35
0.0
146
0.0
 13
0.0
 23
0.0
 33
0.0
 16
1.0
 26
0.0
 36
0.0
 17
0.0
 27
1.0
 37
0.0
 76
0
330
23
  0
DICTIONARY
  5
149
100
AcDbDictionary
281
1
  3
DIMASSOC
350
14C
  3
HIDETEXT
350
14B
  0
DICTIONARYVAR
  5
14B
100
DictionaryVariables
280
0
  1
2
  0
DICTIONARYVAR
  5
14C
100
DictionaryVariables
280
0
  1
1
  0
DICTIONARY
  5
14A
100
AcDbDictionary
281
1
  3
ColorSettings/BackgroundColor
350
14D
  3
ColorSettings/ColorMode
350
14E
  3
Grid/DisplayGrid00
350
14F
  3
Grid/DisplayGrid01
350
150
  3
Grid/DisplayGrid02
350
151
  3
Grid/DisplayGrid03
350
152
  3
Grid/GridSpacingX00
350
153
  3
Grid/GridSpacingX01
350
154
  3
Grid/GridSpacingX02
350
155
  3
Grid/GridSpacingX03
350
156
  3
Grid/GridSpacingY00
350
157
  3
Grid/GridSpacingY01
350
158
  3
Grid/GridSpacingY02
350
159
  3
Grid/GridSpacingY03
350
15A
  3
Grid/IsometricGrid00
350
15B
  3
Grid/IsometricGrid01
350
15C
  3
Grid/IsometricGrid02
350
15D
  3
Grid/IsometricGrid03
350
15E
  3
Grid/IsometricProjection00
350
15F
  3
Grid/IsometricProjection01
350
160
  3
Grid/IsometricProjection02
350
161
  3
Grid/IsometricProjection03
350
162
  3
Grid/MetaGridSpacingX00
350
163
  3
Grid/MetaGridSpacingX01
350
164
  3
Grid/MetaGridSpacingX02
350
165
  3
Grid/MetaGridSpacingX03
350
166
  3
Grid/MetaGridSpacingY00
350
167
  3
Grid/MetaGridSpacingY01
350
168
  3
Grid/MetaGridSpacingY02
350
169
  3
Grid/MetaGridSpacingY03
350
16A
  3
MultiPageSettings/Columns
350
16B
  3
MultiPageSettings/GlueMarginsBottom
350
16C
  3
MultiPageSettings/GlueMarginsLeft
350
16D
  3
MultiPageSettings/GlueMarginsRight
350
16E
  3
MultiPageSettings/GlueMarginsTop
350
16F
  3
MultiPageSettings/PrintCropMarks
350
170
  3
MultiPageSettings/Rows
350
171
  3
PageSettings/OffsetX
350
172
  3
PageSettings/OffsetY
350
173
  3
PageSettings/PageOrientation
350
174
  3
PageSettings/PaperHeight
350
175
  3
PageSettings/PaperWidth
350
176
  3
PageSettings/PositionAccepted
350
177
  3
PageSettings/Scale
350
178
  3
PageSettings/ShowPaperBorders
350
179
  3
PageTagSettings/EnablePageTags
350
17A
  3
PageTagSettings/TagAlignment
350
17B
  3
PageTagSettings/TagFont
350
17C
  3
PageTagSettings/TagPosition
350
17D
  3
QCADVersion
350
17E
  3
UnitSettings/PaperUnit
350
17F
  3
ViewportCenter
350
180
  3
ViewportHeight
350
181
  3
ViewportWidth
350
182
  0
XRECORD
  5
14D
330
14A
100
AcDbXrecord
280
1
1000
White
  0
XRECORD
  5
14E
330
14A
100
AcDbXrecord
280
1
1000
FullColor
  0
XRECORD
  5
14F
330
14A
100
AcDbXrecord
280
1
290
0
  0
XRECORD
  5
150
330
14A
100
AcDbXrecord
280
1
290
1
  0
XRECORD
  5
151
330
14A
100
AcDbXrecord
280
1
290
1
  0
XRECORD
  5
152
330
14A
100
AcDbXrecord
280
1
290
1
  0
XRECORD
  5
153
330
14A
100
AcDbXrecord
280
1
1000
auto
  0
XRECORD
  5
154
330
14A
100
AcDbXrecord
280
1
1000
auto
  0
XRECORD
  5
155
330
14A
100
AcDbXrecord
280
1
1000
auto
  0
XRECORD
  5
156
330
14A
100
AcDbXrecord
280
1
1000
auto
  0
XRECORD
  5
157
330
14A
100
AcDbXrecord
280
1
1000
auto
  0
XRECORD
  5
158
330
14A
100
AcDbXrecord
280
1
1000
auto
  0
XRECORD
  5
159
330
14A
100
AcDbXrecord
280
1
1000
auto
  0
XRECORD
  5
15A
330
14A
100
AcDbXrecord
280
1
1000
auto
  0
XRECORD
  5
15B
330
14A
100
AcDbXrecord
280
1
290
0
  0
XRECORD
  5
15C
330
14A
100
AcDbXrecord
280
1
290
0
  0
XRECORD
  5
15D
330
14A
100
AcDbXrecord
280
1
290
0
  0
XRECORD
  5
15E
330
14A
100
AcDbXrecord
280
1
290
0
  0
XRECORD
  5
15F
330
14A
100
AcDbXrecord
280
1
 90
65537
  0
XRECORD
  5
160
330
14A
100
AcDbXrecord
280
1
 90
65537
  0
XRECORD
  5
161
330
14A
100
AcDbXrecord
280
1
 90
65537
  0
XRECORD
  5
162
330
14A
100
AcDbXrecord
280
1
 90
65537
  0
XRECORD
  5
163
330
14A
100
AcDbXrecord
280
1
1000
auto
  0
XRECORD
  5
164
330
14A
100
AcDbXrecord
280
1
1000
auto
  0
XRECORD
  5
165
330
14A
100
AcDbXrecord
280
1
1000
auto
  0
XRECORD
  5
166
330
14A
100
AcDbXrecord
280
1
1000
auto
  0
XRECORD
  5
167
330
14A
100
AcDbXrecord
280
1
1000
auto
  0
XRECORD
  5
168
330
14A
100
AcDbXrecord
280
1
1000
auto
  0
XRECORD
  5
169
330
14A
100
AcDbXrecord
280
1
1000
auto
  0
XRECORD
  5
16A
330
14A
100
AcDbXrecord
280
1
1000
auto
  0
XRECORD
  5
16B
330
14A
100
AcDbXrecord
280
1
 90
1
  0
XRECORD
  5
16C
330
14A
100
AcDbXrecord
280
1
 40
4.2300000000000004
  0
XRECORD
  5
16D
330
14A
100
AcDbXrecord
280
1
 40
4.2300000000000004
  0
XRECORD
  5
16E
330
14A
100
AcDbXrecord
280
1
 40
4.2300000000000004
  0
XRECORD
  5
16F
330
14A
100
AcDbXrecord
280
1
 40
4.2300000000000004
  0
XRECORD
  5
170
330
14A
100
AcDbXrecord
280
1
290
0
  0
XRECORD
  5
171
330
14A
100
AcDbXrecord
280
1
 90
1
  0
XRECORD
  5
172
330
14A
100
AcDbXrecord
280
1
 40
-5.0508904812894446
  0
XRECORD
  5
173
330
14A
100
AcDbXrecord
280
1
 40
-252.0665031663608318
  0
XRECORD
  5
174
330
14A
100
AcDbXrecord
280
1
1000
Portrait
  0
XRECORD
  5
175
330
14A
100
AcDbXrecord
280
1
 40
297.0
  0
XRECORD
  5
176
330
14A
100
AcDbXrecord
280
1
 40
210.0
  0
XRECORD
  5
177
330
14A
100
AcDbXrecord
280
1
290
1
  0
XRECORD
  5
178
330
14A
100
AcDbXrecord
280
1
 90
1
  0
XRECORD
  5
179
330
14A
100
AcDbXrecord
280
1
290
1
  0
XRECORD
  5
17A
330
14A
100
AcDbXrecord
280
1
290
0
  0
XRECORD
  5
17B
330
14A
100
AcDbXrecord
280
1
1000
Inside
  0
XRECORD
  5
17C
330
14A
100
AcDbXrecord
280
1
1000
Arial,10,-1,5,50,0,0,0,0,0
  0
XRECORD
  5
17D
330
14A
100
AcDbXrecord
280
1
1000
TopLeft
  0
XRECORD
  5
17E
330
14A
100
AcDbXrecord
280
1
1000
3.27.6
  0
XRECORD
  5
17F
330
14A
100
AcDbXrecord
280
1
 90
4
  0
XRECORD
  5
181
330
14A
100
AcDbXrecord
280
1
 40
89.6571241281959317
  0
XRECORD
  5
182
330
14A
100
AcDbXrecord
280
1
 40
176.6650996210250355
  0
ENDSEC
  0
EOF
